<svg width="41" height="40" viewBox="0 0 41 40" fill="none" xmlns="http://www.w3.org/2000/svg">
<g clip-path="url(#clip0_12206_258638)">
<g clip-path="url(#clip1_12206_258638)">
<path d="M0.5 24.8335C0.5 22.6244 2.29086 20.8335 4.5 20.8335H15.6667C17.8758 20.8335 19.6667 22.6244 19.6667 24.8335V36.0002C19.6667 38.2093 17.8758 40.0002 15.6667 40.0002H4.5C2.29086 40.0002 0.5 38.2093 0.5 36.0002V24.8335Z" fill="#8247E5"/>
<path d="M10.0833 40.0002C15.3761 40.0002 19.6667 35.7096 19.6667 30.4168C19.6667 25.1241 15.3761 20.8335 10.0833 20.8335C4.7906 20.8335 0.5 25.1241 0.5 30.4168C0.5 35.7096 4.7906 40.0002 10.0833 40.0002Z" fill="#8247E5"/>
<path d="M13.1334 28.3977C12.9123 28.266 12.625 28.266 12.3819 28.3977L10.658 29.4074L9.48657 30.0659L7.76264 31.0755C7.54162 31.2072 7.2543 31.2072 7.01118 31.0755L5.64087 30.2853C5.41986 30.1536 5.26514 29.9122 5.26514 29.6488V28.0904C5.26514 27.827 5.39776 27.5856 5.64087 27.4539L6.98908 26.6857C7.2101 26.554 7.49742 26.554 7.74054 26.6857L9.08876 27.4539C9.30975 27.5856 9.46448 27.827 9.46448 28.0904V29.1001L10.6359 28.4197V27.41C10.6359 27.1466 10.5033 26.9052 10.2601 26.7735L7.76264 25.3248C7.54162 25.1932 7.2543 25.1932 7.01118 25.3248L4.46948 26.7735C4.22636 26.9052 4.09375 27.1466 4.09375 27.41V30.3293C4.09375 30.5926 4.22636 30.8341 4.46948 30.9658L7.01118 32.4144C7.2322 32.5461 7.51953 32.5461 7.76264 32.4144L9.48657 31.4267L10.658 30.7463L12.3819 29.7586C12.6029 29.6269 12.8902 29.6269 13.1334 29.7586L14.4816 30.5268C14.7026 30.6585 14.8573 30.9 14.8573 31.1633V32.7217C14.8573 32.9851 14.7247 33.2265 14.4816 33.3582L13.1334 34.1484C12.9123 34.2801 12.625 34.2801 12.3819 34.1484L11.0337 33.3802C10.8127 33.2485 10.658 33.007 10.658 32.7437V31.734L9.48657 32.4144V33.4241C9.48657 33.6875 9.6192 33.9289 9.86229 34.0606L12.404 35.5093C12.625 35.6409 12.9123 35.6409 13.1555 35.5093L15.6972 34.0606C15.9182 33.9289 16.0729 33.6875 16.0729 33.4241V30.5048C16.0729 30.2415 15.9403 30 15.6972 29.8683L13.1334 28.3977Z" fill="white"/>
</g>
<path d="M0.5 4C0.5 1.79086 2.29086 0 4.5 0H15.6667C17.8758 0 19.6667 1.79086 19.6667 4V15.1667C19.6667 17.3758 17.8758 19.1667 15.6667 19.1667H4.5C2.29086 19.1667 0.5 17.3758 0.5 15.1667V4Z" fill="#627EEA"/>
<path d="M10.1826 2.396V7.70876L14.673 9.71527L10.1826 2.396Z" fill="white" fill-opacity="0.602"/>
<path d="M10.1824 2.396L5.69141 9.71527L10.1824 7.70876V2.396Z" fill="white"/>
<path d="M10.1826 13.1579V16.7679L14.676 10.5513L10.1826 13.1579Z" fill="white" fill-opacity="0.602"/>
<path d="M10.1824 16.7679V13.1573L5.69141 10.5513L10.1824 16.7679Z" fill="white"/>
<path d="M10.1826 12.3225L14.673 9.71527L10.1826 7.70996V12.3225Z" fill="white" fill-opacity="0.2"/>
<path d="M5.69141 9.71527L10.1824 12.3225V7.70996L5.69141 9.71527Z" fill="white" fill-opacity="0.602"/>
<path d="M21.333 4C21.333 1.79086 23.1239 0 25.333 0H36.4997C38.7088 0 40.4997 1.79086 40.4997 4V15.1667C40.4997 17.3758 38.7088 19.1667 36.4997 19.1667H25.333C23.1239 19.1667 21.333 17.3758 21.333 15.1667V4Z" fill="#F3BA2F"/>
<path fill-rule="evenodd" clip-rule="evenodd" d="M28.59 8.6274L30.9163 6.30104L33.2439 8.62859L34.5975 7.27495L30.9163 3.59375L27.2363 7.27375L28.59 8.6274ZM24.9268 9.58333L26.2804 8.22969L27.634 9.58333L26.2804 10.937L24.9268 9.58333ZM30.9163 12.8656L28.59 10.5393L27.2345 11.8911L27.2363 11.8929L30.9163 15.5729L34.5975 11.8911L33.2439 10.5381L30.9163 12.8656ZM34.1986 9.58333L35.5523 8.22969L36.9059 9.58333L35.5523 10.937L34.1986 9.58333ZM32.2904 9.58214H32.2892L30.9163 8.20932L29.9011 9.22396L29.7843 9.34075L29.5441 9.58154L29.5417 9.58333L29.5441 9.58573L30.9163 10.9573L32.2904 9.58333V9.58214Z" fill="white"/>
<rect x="21.333" y="20.8335" width="19.1667" height="19.1667" rx="4" fill="#CAD0E2"/>
<path fill-rule="evenodd" clip-rule="evenodd" d="M31.333 31.8058C30.7961 31.8058 30.3608 31.3705 30.3608 30.8336C30.3608 30.2966 30.7961 29.8613 31.333 29.8613C31.87 29.8613 32.3052 30.2966 32.3052 30.8336C32.3052 31.3705 31.87 31.8058 31.333 31.8058ZM34.7358 31.8058C34.1988 31.8058 33.7636 31.3705 33.7636 30.8336C33.7636 30.2966 34.1988 29.8613 34.7358 29.8613C35.2727 29.8613 35.708 30.2966 35.708 30.8336C35.708 31.3705 35.2727 31.8058 34.7358 31.8058ZM27.9302 31.8058C27.3933 31.8058 26.958 31.3705 26.958 30.8336C26.958 30.2966 27.3933 29.8613 27.9302 29.8613C28.4672 29.8613 28.9025 30.2966 28.9025 30.8336C28.9025 31.3705 28.4672 31.8058 27.9302 31.8058Z" fill="white"/>
</g>
<defs>
<clipPath id="clip0_12206_258638">
<path d="M0.5 8C0.5 3.58172 4.08172 0 8.5 0H32.5C36.9183 0 40.5 3.58172 40.5 8V32C40.5 36.4183 36.9183 40 32.5 40H8.5C4.08172 40 0.5 36.4183 0.5 32V8Z" fill="white"/>
</clipPath>
<clipPath id="clip1_12206_258638">
<path d="M0.5 24.8335C0.5 22.6244 2.29086 20.8335 4.5 20.8335H15.6667C17.8758 20.8335 19.6667 22.6244 19.6667 24.8335V36.0002C19.6667 38.2093 17.8758 40.0002 15.6667 40.0002H4.5C2.29086 40.0002 0.5 38.2093 0.5 36.0002V24.8335Z" fill="white"/>
</clipPath>
</defs>
</svg>
