<svg width="40" height="40" viewBox="0 0 40 40" fill="none" xmlns="http://www.w3.org/2000/svg">
<rect width="40" height="40" rx="8" fill="#12192C"/>
<path d="M32.8956 18.574L32.1757 17.3681L28.2341 10.7447H28.2161L28.0901 10.5107H26.6502L21.0527 20.3558L26.7402 30.1469H28.1801L28.2161 30.0929L32.9136 22.0477H30.0159L27.5141 26.4933L23.9505 20.3378L27.4421 14.1824L29.9799 18.556L32.8956 18.574Z" fill="#41E6AF"/>
<path d="M10.9917 16.9722L13.6194 12.4906L12.7375 11.0688L12.1256 10.0608L7.62599 17.9981L7.5 18.2141L8.21993 19.474H19.5409L25.2464 9.70088L24.4544 8.33301L16.5352 8.35101H16.4092L15.1493 8.33301L15.8152 9.59289L16.4812 10.8528L21.6647 10.8348L18.101 16.9722H10.9917Z" fill="#41E6AF"/>
<path d="M16.5892 11.7891C16.3912 11.7891 16.1752 11.8251 15.9592 11.8971C15.7252 11.969 15.4913 12.077 15.2753 12.203C14.6633 12.581 14.2314 13.1209 14.1594 13.6249C14.1234 13.8589 14.1774 14.0569 14.3034 14.2008C14.3214 14.2368 14.3574 14.2548 14.3754 14.2908C14.3934 14.3088 14.4114 14.3088 14.4294 14.3268C14.4474 14.3448 14.4474 14.3448 14.4654 14.3628C14.5014 14.3808 14.5194 14.3988 14.5553 14.4168C14.9333 14.5968 15.5273 14.5608 16.1032 14.2908L16.1212 14.2728C16.1752 14.2548 16.2292 14.2188 16.2832 14.2008C16.3372 14.1828 16.3732 14.1468 16.4272 14.1108C16.4812 14.0749 16.5352 14.0389 16.5892 14.0029C16.6432 13.9669 16.6792 13.9309 16.7331 13.8949L16.7691 13.8769C16.8051 13.8409 16.8411 13.8229 16.8771 13.7869C16.8951 13.7689 16.8951 13.7689 16.9131 13.7509C16.9491 13.7329 16.9671 13.6969 16.9851 13.6789C17.0031 13.6609 17.0211 13.6429 17.0391 13.6069C17.0571 13.5709 17.0931 13.5529 17.1111 13.5169C17.1291 13.4989 17.1291 13.4989 17.1471 13.4809C17.1651 13.4449 17.2011 13.4269 17.2191 13.3909L17.2551 13.3549C17.2731 13.3189 17.2911 13.3009 17.3091 13.2649C17.3091 13.2649 17.3091 13.2649 17.3091 13.2469L17.3271 13.2109C17.3631 13.1749 17.3811 13.1209 17.3991 13.0849C17.4171 13.0489 17.4351 12.995 17.4531 12.959L17.4711 12.941C17.4711 12.923 17.4891 12.905 17.4891 12.905C17.4891 12.887 17.4891 12.887 17.5071 12.869C17.5071 12.833 17.5251 12.815 17.5251 12.779C17.5251 12.743 17.5431 12.743 17.5431 12.725C17.5431 12.707 17.5431 12.689 17.5431 12.689C17.5431 12.653 17.5431 12.635 17.5431 12.617V12.581C17.5431 12.545 17.5431 12.527 17.5431 12.491C17.5431 12.473 17.5431 12.473 17.5431 12.455C17.5431 12.437 17.5431 12.419 17.5431 12.419C17.5431 12.401 17.5431 12.401 17.5431 12.383V12.365C17.5431 12.329 17.5251 12.311 17.5071 12.275C17.4891 12.239 17.4711 12.221 17.4531 12.185C17.3271 11.9151 16.9851 11.7891 16.5892 11.7891Z" fill="#41E6AF"/>
<path d="M17.9029 13.1023C17.9029 13.1383 17.8849 13.1563 17.8669 13.1923C17.8669 13.2103 17.8669 13.2103 17.8489 13.2283C17.8309 13.2823 17.8129 13.3183 17.7769 13.3723C17.579 13.7502 17.255 14.1102 16.859 14.3982C16.805 14.4342 16.751 14.4702 16.697 14.5062C16.643 14.5421 16.589 14.5781 16.5351 14.5961H16.5171C16.4991 14.6141 16.4811 14.6141 16.4631 14.6321C16.4271 14.6501 16.4091 14.6681 16.3731 14.6861H16.3551C16.3371 14.6861 16.3191 14.7041 16.3011 14.7041C16.2651 14.7221 16.2291 14.7401 16.1931 14.7401L16.1571 14.7581C16.1571 14.7581 16.1571 14.7581 16.1391 14.7581C16.1211 14.7581 16.1031 14.7761 16.0851 14.7761C16.0491 14.7941 16.0131 14.7941 15.9771 14.8121L15.9411 14.8301H15.9231C15.8871 14.8481 15.8511 14.8481 15.8151 14.8661C15.7971 14.8661 15.7791 14.8841 15.7431 14.8841H15.7251C15.6891 14.8841 15.6531 14.9021 15.6351 14.9021C15.6171 14.9021 15.5811 14.9021 15.5631 14.9201H15.5451C15.5271 14.9201 15.5091 14.9201 15.4911 14.9381C15.4731 14.9381 15.4551 14.9381 15.4372 14.9381C15.3832 14.9381 15.3112 14.9561 15.2572 14.9561H15.2392C15.1852 14.9561 15.1312 14.9561 15.0772 14.9561C15.0592 14.9561 15.0412 14.9561 15.0412 14.9561H15.0232C14.9872 14.9561 14.9512 14.9561 14.9152 14.9381C14.8972 14.9381 14.8792 14.9381 14.8612 14.9201C14.8252 14.9201 14.7892 14.9021 14.7532 14.9021C14.7352 14.9021 14.7172 14.8841 14.6992 14.8841L15.6891 16.486L17.8129 16.468L18.9108 14.5241L17.9209 12.9043C17.9209 12.9223 17.9209 12.9403 17.9029 12.9583C17.9029 12.9763 17.9029 12.9763 17.9029 12.9943C17.9029 13.0123 17.8849 13.0303 17.8849 13.0663C17.9029 13.0843 17.9029 13.1023 17.9029 13.1023Z" fill="#41E6AF"/>
<path d="M29.1871 18.9521C29.2951 19.1141 29.3671 19.3121 29.4211 19.5461C29.4751 19.7801 29.5111 20.032 29.5111 20.284C29.5111 21.0039 29.2771 21.6519 28.8811 21.9759C28.7012 22.1198 28.5032 22.1918 28.3052 22.1558C28.2692 22.1558 28.2332 22.1378 28.1972 22.1378C28.1792 22.1378 28.1612 22.1198 28.1432 22.1198C28.1252 22.1198 28.1072 22.1018 28.0892 22.1018C28.0532 22.0838 28.0172 22.0658 27.9992 22.0478C27.6393 21.8139 27.3693 21.2919 27.2973 20.662V20.644C27.2973 20.59 27.2793 20.536 27.2793 20.464C27.2793 20.41 27.2793 20.356 27.2793 20.302C27.2793 20.23 27.2793 20.176 27.2793 20.104C27.2793 20.05 27.2793 19.996 27.2973 19.942V19.906C27.2973 19.87 27.3153 19.816 27.3153 19.7801C27.3153 19.7621 27.3153 19.7441 27.3153 19.7261C27.3153 19.6901 27.3333 19.6541 27.3333 19.6181C27.3333 19.5821 27.3513 19.5641 27.3513 19.5281C27.3693 19.4921 27.3693 19.4561 27.3873 19.4201C27.3873 19.4021 27.4053 19.3841 27.4053 19.3661C27.4233 19.3301 27.4233 19.2941 27.4413 19.2581L27.4593 19.2041C27.4773 19.1681 27.4953 19.1501 27.4953 19.1141C27.4953 19.1141 27.4953 19.1141 27.4953 19.0961L27.5133 19.0601C27.5313 19.0061 27.5673 18.9701 27.5853 18.9341C27.6033 18.8981 27.6393 18.8621 27.6573 18.8261L27.6753 18.8081C27.6933 18.7901 27.6933 18.7901 27.7113 18.7721C27.7293 18.7541 27.7293 18.7541 27.7293 18.7361C27.7473 18.7181 27.7653 18.7002 27.7832 18.6822C27.8012 18.6642 27.8192 18.6462 27.8192 18.6462C27.8372 18.6282 27.8372 18.6282 27.8552 18.6102C27.8732 18.5922 27.8912 18.5742 27.9092 18.5562L27.9452 18.5382C27.9632 18.5202 27.9992 18.5022 28.0172 18.4842C28.0352 18.4842 28.0352 18.4842 28.0532 18.4662C28.0712 18.4662 28.0892 18.4482 28.0892 18.4482C28.0892 18.4482 28.1072 18.4482 28.1072 18.4302H28.1252C28.1612 18.4302 28.1792 18.4122 28.2152 18.4122C28.2512 18.4122 28.2872 18.4122 28.3232 18.4122C28.7012 18.3942 28.9711 18.6102 29.1871 18.9521Z" fill="#41E6AF"/>
<path d="M27.3711 18.5205C27.3531 18.5385 27.3351 18.5745 27.3171 18.5925C27.3171 18.6105 27.2991 18.6105 27.2991 18.6285C27.2631 18.6645 27.2451 18.7185 27.2091 18.7545C26.9751 19.1145 26.8491 19.5824 26.8131 20.0684C26.8131 20.1404 26.8131 20.1944 26.8131 20.2664C26.8131 20.3204 26.8131 20.3923 26.8131 20.4463V20.4643C26.8131 20.4823 26.8131 20.5183 26.8131 20.5363C26.8131 20.5723 26.8131 20.6083 26.8311 20.6443V20.6623C26.8311 20.6803 26.8311 20.6983 26.8311 20.7163C26.8311 20.7523 26.8491 20.7883 26.8491 20.8243V20.8603C26.8491 20.8603 26.8491 20.8603 26.8491 20.8783C26.8491 20.8963 26.8491 20.9143 26.8671 20.9323C26.8671 20.9683 26.8851 21.0043 26.8851 21.0403L26.9031 21.0763V21.0943C26.9031 21.1303 26.9211 21.1663 26.9391 21.2023C26.9391 21.2203 26.9571 21.2383 26.9571 21.2563V21.2743C26.9751 21.3103 26.9751 21.3283 26.9931 21.3643C26.9931 21.3823 27.0111 21.4003 27.0291 21.4363V21.4543C27.0291 21.4722 27.0471 21.4902 27.0471 21.5082C27.0651 21.5262 27.0651 21.5442 27.0651 21.5442C27.0831 21.5982 27.1191 21.6522 27.1551 21.7062L27.1731 21.7242C27.2091 21.7782 27.2271 21.8142 27.2631 21.8502C27.2631 21.8682 27.2811 21.8682 27.2811 21.8862L27.2991 21.9042C27.3171 21.9402 27.3531 21.9582 27.3711 21.9942C27.3891 22.0122 27.3891 22.0302 27.4071 22.0302C27.4431 22.0662 27.4611 22.0842 27.4791 22.1202C27.4971 22.1382 27.5151 22.1382 27.5151 22.1562H25.6252L24.5273 20.3384L25.6072 18.3945H27.4971C27.4791 18.4125 27.4791 18.4125 27.4611 18.4305L27.4431 18.4485C27.4251 18.4665 27.4071 18.4845 27.3711 18.5205C27.3711 18.5205 27.3891 18.5205 27.3711 18.5205Z" fill="#41E6AF"/>
<path d="M16.5892 28.8689C16.3912 28.8689 16.1752 28.8329 15.9592 28.7609C15.7252 28.6889 15.4913 28.5809 15.2753 28.4549C14.6633 28.0769 14.2314 27.537 14.1594 27.033C14.1234 26.7991 14.1774 26.6011 14.3034 26.4571C14.3214 26.4211 14.3574 26.4031 14.3754 26.3671C14.3934 26.3491 14.4114 26.3491 14.4294 26.3311C14.4474 26.3131 14.4474 26.3131 14.4654 26.2951C14.5014 26.2771 14.5194 26.2591 14.5553 26.2411C14.9333 26.0611 15.5273 26.0971 16.1032 26.3671L16.1212 26.3851C16.1752 26.4031 16.2292 26.4391 16.2832 26.4571C16.3372 26.4751 16.3732 26.5111 16.4272 26.5471C16.4812 26.5831 16.5352 26.6191 16.5892 26.6551C16.6432 26.6911 16.6792 26.7271 16.7331 26.7631L16.7691 26.7811C16.8051 26.8171 16.8411 26.835 16.8771 26.871C16.8951 26.889 16.8951 26.889 16.9131 26.907C16.9491 26.925 16.9671 26.961 16.9851 26.979C17.0031 26.997 17.0211 27.015 17.0391 27.051C17.0571 27.087 17.0931 27.105 17.1111 27.141C17.1291 27.159 17.1291 27.159 17.1471 27.177C17.1651 27.213 17.2011 27.231 17.2191 27.267L17.2551 27.303C17.2731 27.339 17.2911 27.357 17.3091 27.393V27.411L17.3271 27.447C17.3631 27.483 17.3811 27.537 17.3991 27.573C17.4171 27.609 17.4351 27.663 17.4531 27.699L17.4711 27.717C17.4711 27.735 17.4891 27.753 17.4891 27.753C17.4891 27.771 17.4891 27.771 17.5071 27.789C17.5071 27.825 17.5251 27.843 17.5251 27.879C17.5251 27.915 17.5431 27.9149 17.5431 27.9329C17.5431 27.9509 17.5431 27.9689 17.5431 27.9689C17.5431 28.0049 17.5431 28.0229 17.5431 28.0409V28.0769C17.5431 28.1129 17.5431 28.1309 17.5431 28.1669C17.5431 28.1849 17.5431 28.1849 17.5431 28.2029C17.5431 28.2209 17.5431 28.2389 17.5431 28.2389C17.5431 28.2569 17.5431 28.2569 17.5431 28.2749V28.2929C17.5431 28.3289 17.5251 28.3469 17.5071 28.3829C17.4891 28.4189 17.4711 28.4369 17.4531 28.4729C17.3271 28.7429 16.9851 28.8869 16.5892 28.8689Z" fill="#41E6AF"/>
<path d="M17.9029 27.5556C17.9029 27.5196 17.8849 27.5016 17.8669 27.4656C17.8669 27.4476 17.8669 27.4476 17.8489 27.4296C17.8309 27.3756 17.8129 27.3396 17.7769 27.2856C17.579 26.9076 17.255 26.5477 16.859 26.2597C16.805 26.2237 16.751 26.1877 16.697 26.1517C16.643 26.1157 16.589 26.0797 16.5351 26.0617H16.5171C16.4991 26.0437 16.4811 26.0437 16.4631 26.0257C16.4271 26.0077 16.4091 25.9897 16.3731 25.9717H16.3551C16.3371 25.9717 16.3191 25.9537 16.3011 25.9537C16.2651 25.9357 16.2291 25.9177 16.1931 25.9177L16.1571 25.8997C16.1571 25.8997 16.1571 25.8997 16.1391 25.8997C16.1211 25.8997 16.1031 25.8817 16.0851 25.8817C16.0491 25.8637 16.0131 25.8637 15.9771 25.8457L15.9411 25.8277H15.9231C15.8871 25.8097 15.8511 25.8097 15.8151 25.7917C15.7971 25.7917 15.7791 25.7737 15.7431 25.7737H15.7251C15.6891 25.7737 15.6531 25.7557 15.6351 25.7557C15.6171 25.7557 15.5811 25.7557 15.5631 25.7377H15.5451C15.5271 25.7377 15.5091 25.7377 15.4911 25.7197C15.4731 25.7197 15.4551 25.7197 15.4372 25.7197C15.3832 25.7197 15.3112 25.7017 15.2572 25.7017H15.2392C15.1852 25.7017 15.1312 25.7017 15.0772 25.7017C15.0592 25.7017 15.0412 25.7017 15.0412 25.7017H15.0232C14.9872 25.7017 14.9512 25.7017 14.9152 25.7197C14.8972 25.7197 14.8792 25.7197 14.8612 25.7377C14.8252 25.7377 14.7892 25.7557 14.7532 25.7557C14.7352 25.7557 14.7172 25.7737 14.6992 25.7737L15.6891 24.1719L17.8129 24.1899L18.9108 26.1337L17.9209 27.7535C17.9209 27.7355 17.9209 27.7175 17.9029 27.6996C17.9029 27.6816 17.9029 27.6816 17.9029 27.6636C17.9029 27.6456 17.8849 27.6276 17.8849 27.5916C17.9029 27.5736 17.9029 27.5556 17.9029 27.5556Z" fill="#41E6AF"/>
<path d="M21.6647 29.8228L16.4812 29.8048L15.6892 31.2987L15.1493 32.3246L16.5352 32.3066V32.3246L24.4544 32.3426L25.2464 30.9747L19.5409 21.2016L8.21993 21.1836L7.5 22.4435L7.64399 22.6775H7.62599L12.1256 30.5967L13.6194 28.167L10.9917 23.7034H18.101L21.6647 29.8228Z" fill="#41E6AF"/>
</svg>
