<svg width="40" height="40" viewBox="0 0 40 40" fill="none" xmlns="http://www.w3.org/2000/svg">
<rect width="40" height="40" rx="8" fill="#8247E5"/>
<path d="M20 40C31.0457 40 40 31.0457 40 20C40 8.95431 31.0457 0 20 0C8.95431 0 0 8.95431 0 20C0 31.0457 8.95431 40 20 40Z" fill="#8247E5"/>
<path d="M26.3653 15.7861C25.904 15.5113 25.3044 15.5113 24.7971 15.7861L21.1992 17.8932L18.7546 19.2675L15.1568 21.3745C14.6956 21.6494 14.0959 21.6494 13.5886 21.3745L10.7288 19.7254C10.2675 19.4506 9.94465 18.9468 9.94465 18.3971V15.1448C9.94465 14.5951 10.2214 14.0912 10.7288 13.8164L13.5424 12.2132C14.0037 11.9383 14.6033 11.9383 15.1107 12.2132L17.9244 13.8164C18.3856 14.0912 18.7085 14.5951 18.7085 15.1448V17.2519L21.1531 15.8319V13.7248C21.1531 13.1751 20.8764 12.6712 20.369 12.3964L15.1568 9.37312C14.6956 9.09828 14.0959 9.09828 13.5886 9.37312L8.28413 12.3964C7.77675 12.6712 7.5 13.1751 7.5 13.7248V19.8171C7.5 20.3668 7.77675 20.8707 8.28413 21.1455L13.5886 24.1688C14.0498 24.4436 14.6494 24.4436 15.1568 24.1688L18.7546 22.1075L21.1992 20.6875L24.7971 18.6261C25.2583 18.3513 25.8579 18.3513 26.3653 18.6261L29.1789 20.2294C29.6402 20.5042 29.9631 21.0081 29.9631 21.5578V24.81C29.9631 25.3598 29.6864 25.8636 29.1789 26.1385L26.3653 27.7875C25.904 28.0624 25.3044 28.0624 24.7971 27.7875L21.9834 26.1843C21.5221 25.9095 21.1992 25.4055 21.1992 24.8559V22.7488L18.7546 24.1688V26.2759C18.7546 26.8255 19.0314 27.3295 19.5387 27.6043L24.8432 30.6275C25.3044 30.9024 25.904 30.9024 26.4114 30.6275L31.7159 27.6043C32.1771 27.3295 32.5 26.8255 32.5 26.2759V20.1835C32.5 19.6339 32.2232 19.13 31.7159 18.8552L26.3653 15.7861Z" fill="white"/>
</svg>
