<svg width="12" height="12" viewBox="0 0 12 12" fill="none" xmlns="http://www.w3.org/2000/svg">
<rect width="12" height="12" rx="6" fill="black"/>
<path d="M6 12C9.31371 12 12 9.31371 12 6C12 2.68629 9.31371 0 6 0C2.68629 0 0 2.68629 0 6C0 9.31371 2.68629 12 6 12Z" fill="black"/>
<path fill-rule="evenodd" clip-rule="evenodd" d="M3.70245 7.65351C3.72504 7.62867 3.75255 7.60884 3.78324 7.59525C3.8139 7.58166 3.84711 7.57464 3.88065 7.57461L9.37905 7.57911C9.40248 7.57917 9.42537 7.58601 9.44496 7.59882C9.46458 7.61163 9.48003 7.62987 9.48945 7.65129C9.4989 7.67271 9.5019 7.69644 9.49812 7.71954C9.49434 7.74264 9.48393 7.76415 9.46815 7.78146L8.29725 9.07071C8.27466 9.09555 8.24712 9.11541 8.21643 9.129C8.18571 9.14259 8.1525 9.14961 8.1189 9.14961L2.62065 9.14511C2.59724 9.14505 2.57434 9.13821 2.55474 9.1254C2.53514 9.11259 2.51969 9.09435 2.51025 9.07293C2.50082 9.05151 2.4978 9.02778 2.50159 9.00468C2.50537 8.98158 2.51578 8.96007 2.53155 8.94276L3.70245 7.65351ZM9.46815 6.58026C9.48393 6.59757 9.49434 6.61908 9.49812 6.64218C9.5019 6.66528 9.4989 6.68901 9.48945 6.71043C9.48003 6.73185 9.46458 6.75009 9.44496 6.7629C9.42537 6.77571 9.40248 6.78255 9.37905 6.78261L3.8808 6.78711C3.84723 6.78711 3.81402 6.78009 3.7833 6.7665C3.75258 6.75291 3.72504 6.73305 3.70245 6.70821L2.53155 5.41821C2.51578 5.4009 2.50537 5.37939 2.50159 5.35629C2.4978 5.33319 2.50082 5.30946 2.51025 5.28804C2.51969 5.26662 2.53514 5.24838 2.55474 5.23557C2.57434 5.22276 2.59724 5.21592 2.62065 5.21586L8.11905 5.21136C8.15262 5.21139 8.1858 5.21841 8.21649 5.232C8.24718 5.24559 8.27469 5.26542 8.29725 5.29026L9.46815 6.58026ZM3.70245 2.92851C3.72504 2.90368 3.75255 2.88383 3.78324 2.87025C3.8139 2.85666 3.84711 2.84963 3.88065 2.84961L9.37905 2.85411C9.40248 2.85416 9.42537 2.861 9.44496 2.87382C9.46458 2.88663 9.48003 2.90486 9.48945 2.92629C9.4989 2.94772 9.5019 2.97143 9.49812 2.99453C9.49434 3.01764 9.48393 3.03915 9.46815 3.05646L8.29725 4.34571C8.27466 4.37055 8.24712 4.39041 8.21643 4.404C8.18571 4.41759 8.1525 4.42461 8.1189 4.42461L2.62065 4.42011C2.59724 4.42005 2.57434 4.41321 2.55474 4.4004C2.53514 4.38759 2.51969 4.36935 2.51025 4.34793C2.50082 4.32651 2.4978 4.30278 2.50159 4.27968C2.50537 4.25658 2.51578 4.23507 2.53155 4.21776L3.70245 2.92851Z" fill="url(#paint0_linear_12683_240274)"/>
<defs>
<linearGradient id="paint0_linear_12683_240274" x1="2.71245" y1="9.28701" x2="9.28725" y2="2.71221" gradientUnits="userSpaceOnUse">
<stop stop-color="#9945FF"/>
<stop offset="0.2" stop-color="#7962E7"/>
<stop offset="1" stop-color="#00D18C"/>
</linearGradient>
</defs>
</svg>
