<svg width="180" height="180" viewBox="0 0 180 180" fill="none" xmlns="http://www.w3.org/2000/svg">
<rect x="62.2461" y="42.0215" width="58.4409" height="99.7731" rx="5" fill="#FFC211"/>
<rect x="66.9453" y="44.0332" width="48.7156" height="87.1113" rx="3" fill="white" stroke="#001F58" stroke-width="2"/>
<rect x="59.8301" y="38.7241" width="61.3184" height="103.685" rx="7" stroke="#001F58" stroke-width="2"/>
<line x1="83.127" y1="136.786" x2="99.3596" y2="136.786" stroke="#001F58" stroke-width="2" stroke-linecap="round"/>
<path d="M90.8514 83.0307L90.5039 83.3532V86.1485L95.4751 91.9809L97.4262 89.6963L91.3057 82.5737L90.8514 83.0307Z" fill="#FFC211"/>
<path d="M90.5039 78.4614V80.4773L90.9315 80.9879L91.3592 81.4717L98.1745 74.6986L94.5129 74.2954L90.5039 78.4614Z" fill="#FFC211"/>
<path d="M86.8438 76.1769L88.0999 77.6552L89.1155 78.8378L89.463 78.4884L89.757 78.1659V74.2148L86.8438 74.5374V76.1769Z" fill="#FFC211"/>
<path d="M93.5775 74.1881L91.7333 74L90.5039 74.1344V77.3866L93.5775 74.1881Z" fill="#FFC211"/>
<path d="M97.9049 89.1318L103.999 82.0092L101.433 78.4076L98.8938 75.021L91.8379 82.0361L97.9049 89.1318Z" fill="#FFC211"/>
<path d="M87.0293 82.0901L88.6596 83.9716L88.7398 84.0791L89.7554 83.0577V80.7731L89.0873 79.9668L87.0293 82.0901Z" fill="#FFC211"/>
<path d="M89.7572 85.2886V84.106L89.2227 84.6435L89.7572 85.2886Z" fill="#FFC211"/>
<path d="M89.5957 79.4289L89.6759 79.5095L89.7561 79.617V79.2407L89.6759 79.3214L89.5957 79.4289Z" fill="#FFC211"/>
<path d="M88.2068 84.6166L86.8438 83.0039V85.9604L87.3783 85.4229L88.2068 84.6166Z" fill="#FFC211"/>
<path d="M90.5039 87.3042V94.9375L91.7333 96.362L94.994 92.5453L90.5039 87.3042Z" fill="#FFC211"/>
<path d="M88.581 79.4026L87.7792 78.4619L86.8438 77.333V81.2303L87.7525 80.2627L88.581 79.4026Z" fill="#FFC211"/>
<path d="M89.757 86.4444L88.6879 85.1812L87.6188 86.2294L86.8438 87.0088V90.6373L89.757 94.0777V86.4444Z" fill="#FFC211"/>
<path d="M86.0945 82.009V76.4722V75.3165V74.6177L84.7581 74.7521L82.032 78.4074L79.4395 82.009L86.0945 89.7767V87.7608V86.7126V82.1434V82.009Z" fill="#FFC211"/>
<path d="M90.8246 82.0096L90.7177 81.8752L90.5039 81.6333V82.3052L90.6108 82.1977L90.8246 82.0096Z" fill="#FFC211"/>
<path d="M130.044 122C124.747 122 121.618 122 117.044 122C117.044 110.402 115.36 102 123.544 102C131.727 102 130.044 110.402 130.044 122Z" fill="white"/>
<path d="M117.001 114C117.002 112.615 116.749 102 123.296 102C129.843 102 129.5 106.5 129.5 107" stroke="#001F58" stroke-width="2" stroke-linecap="round"/>
<rect x="109" y="111.951" width="28.6829" height="22.0488" rx="3" fill="white" stroke="#001F58" stroke-width="2"/>
<rect x="112.146" y="114.268" width="26.5366" height="20.7317" rx="4" fill="#FFC211"/>
<rect x="109" y="111.951" width="28.6829" height="22.0488" rx="3" stroke="#001F58" stroke-width="2"/>
<circle cx="123" cy="122.5" r="2.5" fill="#001F58"/>
<rect x="122" y="123" width="2" height="4" rx="1" fill="#001F58"/>
</svg>
