<svg width="439" height="893" viewBox="0 0 439 893" fill="none" xmlns="http://www.w3.org/2000/svg">
<path fill-rule="evenodd" clip-rule="evenodd" d="M348.64 0H90.3598C30.3598 0 2.17866 33.3 2.17866 88.2034V172.516C0.909381 172.965 0 174.176 0 175.599V202.842C0 204.266 0.909381 205.476 2.17866 205.925V236.45C0.909381 236.899 0 238.11 0 239.534V300.84C0 302.263 0.909381 303.474 2.17866 303.923V323.91C0.909381 324.359 0 325.569 0 326.993V387.299C0 388.722 0.909381 389.933 2.17866 390.382V813.797C2.17866 864.703 30.4659 893 80.3598 893H358.64C408.534 893 436.821 863.703 436.821 813.797V391.216C438.091 390.767 439 389.556 439 388.133V286.687C439 285.263 438.091 284.052 436.821 283.603V88.2034C436.821 33.2971 408.64 0 348.64 0ZM416 84V806C416 845 400.5 871 352 871H87C38.5 871 23 845 23 806V84C23 45 38.5 19 87 19H352C400.5 19 416 45 416 84ZM157 48.5C157 38.2827 165.283 30 175.5 30H263.5C273.717 30 282 38.2827 282 48.5C282 58.7173 273.717 67 263.5 67H175.5C165.283 67 157 58.7173 157 48.5Z" fill="#3C4045"/>
</svg>
