<svg width="40" height="40" viewBox="0 0 40 40" fill="none" xmlns="http://www.w3.org/2000/svg">
<rect width="40" height="40" rx="8" fill="#2D374B"/>
<path d="M23.1861 18.5671L25.2421 15.1656L30.7839 23.5812L30.7864 25.1963L30.7684 14.0826C30.7553 13.8108 30.6073 13.5623 30.3713 13.4156L20.394 7.82027C20.1608 7.7084 19.8647 7.70975 19.6317 7.82379C19.6002 7.83924 19.5708 7.85587 19.5425 7.87418L19.5077 7.89551L9.82314 13.3673L9.78559 13.3841C9.73718 13.4056 9.68843 13.4333 9.64243 13.4652C9.4588 13.5935 9.33684 13.7835 9.29739 13.9963C9.29153 14.0285 9.28705 14.0614 9.28516 14.0947L9.30032 23.1512L14.4622 15.3507C15.112 14.3164 16.528 13.983 17.8426 14.0013L19.3852 14.0409L10.2953 28.2541L11.3668 28.8556L20.5656 14.0554L24.6316 14.0409L15.4566 29.2147L19.28 31.359L19.7368 31.615C19.9301 31.6915 20.1578 31.6954 20.3527 31.6267L30.4702 25.9101L28.5358 27.003L23.1861 18.5671ZM23.9704 29.5827L20.1088 23.673L22.4662 19.7727L27.5379 27.5668L23.9704 29.5827Z" fill="#2D374B"/>
<path d="M20.1094 23.6738L23.9712 29.5832L27.5385 27.5676L22.4668 19.7734L20.1094 23.6738Z" fill="#28A0F0"/>
<path d="M30.7878 25.1967L30.7853 23.5816L25.2435 15.166L23.1875 18.5675L28.5374 27.0034L30.4717 25.9105C30.6614 25.7603 30.7763 25.5398 30.7884 25.302L30.7878 25.1967Z" fill="#28A0F0"/>
<path d="M7.56445 26.7198L10.2961 28.2545L19.386 14.0413L17.8433 14.0017C16.529 13.9835 15.1129 14.3168 14.463 15.3511L9.30106 23.1516L7.56445 25.7531V26.7198V26.7198Z" fill="white"/>
<path d="M24.632 14.041L20.566 14.0555L11.3672 28.8556L14.5825 30.6605L15.4568 29.2147L24.632 14.041Z" fill="white"/>
<path d="M32.5005 14.0208C32.4666 13.1917 32.0061 12.4329 31.285 11.991L21.177 6.3234C20.4637 5.97321 19.5725 5.9727 18.8578 6.32323C18.7734 6.36472 9.02802 11.8754 9.02802 11.8754C8.89313 11.9384 8.76325 12.0135 8.64111 12.0988C7.99736 12.5488 7.60494 13.2478 7.56445 14.0157V25.7532L9.30106 23.1517L9.2859 14.095C9.28797 14.0619 9.29227 14.0292 9.29813 13.9971C9.33741 13.784 9.45954 13.594 9.64318 13.4655C9.68917 13.4336 19.6008 7.83956 19.6323 7.82411C19.8654 7.71007 20.1613 7.70872 20.3946 7.82059L30.3719 13.416C30.6079 13.5626 30.7558 13.8112 30.7689 14.0829V25.3017C30.7569 25.5395 30.6604 25.7601 30.4707 25.9102L28.5364 27.0031L27.5383 27.5671L23.971 29.5828L20.3533 31.6269C20.1584 31.6956 19.9305 31.6917 19.7374 31.6151L15.4571 29.2148L14.5827 30.6606L18.4294 32.8199C18.5565 32.8904 18.6699 32.9529 18.7629 33.004C18.9069 33.0827 19.0051 33.1353 19.0397 33.1518C19.3131 33.2813 19.7064 33.3565 20.0609 33.3565C20.3858 33.3565 20.7028 33.2984 21.0027 33.1838L31.5107 27.2507C32.1138 26.795 32.4687 26.1079 32.5005 25.3637V14.0208Z" fill="#96BEDC"/>
</svg>
