<svg width="12" height="12" viewBox="0 0 12 12" fill="none" xmlns="http://www.w3.org/2000/svg">
<rect width="12" height="12" rx="6" fill="#2D374B"/>
<path d="M6.95544 5.57023L7.57223 4.54978L9.23477 7.07445L9.23554 7.55897L9.23012 4.22488C9.22619 4.14335 9.18179 4.06878 9.11099 4.02479L6.11782 2.34618C6.04784 2.31262 5.95901 2.31302 5.88913 2.34724C5.87968 2.35187 5.87084 2.35686 5.86236 2.36235L5.85193 2.36875L2.94655 4.01028L2.93529 4.01532C2.92076 4.02177 2.90614 4.03008 2.89234 4.03965C2.83725 4.07815 2.80066 4.13514 2.78883 4.19898C2.78707 4.20865 2.78572 4.21853 2.78516 4.22851L2.7897 6.94545L4.33828 4.6053C4.53322 4.29502 4.95802 4.195 5.35239 4.20049L5.81518 4.21238L3.08821 8.47633L3.40965 8.65677L6.16929 4.21672L7.38908 4.21238L4.63658 8.7645L5.7836 9.40779L5.92066 9.48459C5.97864 9.50756 6.04696 9.50872 6.10541 9.48811L9.14066 7.77312L8.56035 8.10099L6.95544 5.57023ZM7.19074 8.8749L6.03223 7.10201L6.73947 5.93191L8.26097 8.27014L7.19074 8.8749Z" fill="#2D374B"/>
<path d="M6.0332 7.10272L7.19176 8.87555L8.26194 8.27085L6.74044 5.93262L6.0332 7.10272Z" fill="#28A0F0"/>
<path d="M9.23713 7.559L9.23636 7.07447L7.57383 4.5498L6.95703 5.57025L8.56199 8.10102L9.1423 7.77315C9.1992 7.7281 9.23367 7.66194 9.23729 7.59059L9.23713 7.559Z" fill="#28A0F0"/>
<path d="M2.26953 8.01585L3.08901 8.47624L5.81599 4.2123L5.3532 4.2004C4.95888 4.19496 4.53408 4.29493 4.33909 4.60522L2.79051 6.94537L2.26953 7.72582V8.01585Z" fill="white"/>
<path d="M7.38959 4.21289L6.16979 4.21722L3.41016 8.65728L4.37476 9.19874L4.63703 8.765L7.38959 4.21289Z" fill="white"/>
<path d="M9.75036 4.20643C9.74017 3.95772 9.60204 3.73006 9.3857 3.59749L6.3533 1.89722C6.1393 1.79216 5.87196 1.79201 5.65754 1.89717C5.63222 1.90961 2.7086 3.56283 2.7086 3.56283C2.66814 3.58172 2.62917 3.60425 2.59253 3.62984C2.3994 3.76483 2.28168 3.97454 2.26953 4.20492V7.72615L2.79051 6.9457L2.78597 4.2287C2.78659 4.21877 2.78788 4.20895 2.78963 4.19932C2.80142 4.13538 2.83806 4.07839 2.89315 4.03985C2.90695 4.03027 5.88043 2.35206 5.88989 2.34743C5.95981 2.31322 6.0486 2.31281 6.11857 2.34637L9.11175 4.02498C9.18255 4.06897 9.22694 4.14354 9.23087 4.22507V7.59071C9.22725 7.66206 9.19831 7.72822 9.14142 7.77326L8.56111 8.10114L8.26167 8.27034L7.19149 8.87504L6.10617 9.48826C6.04772 9.50886 5.97935 9.50771 5.92142 9.48473L4.63733 8.76464L4.37501 9.19838L5.52901 9.84616C5.56715 9.86732 5.60116 9.88607 5.62906 9.90138C5.67227 9.92502 5.70173 9.94079 5.71211 9.94572C5.79413 9.98457 5.91211 10.0071 6.01847 10.0071C6.11594 10.0071 6.21103 9.98971 6.301 9.95535L9.4534 8.17541C9.63434 8.03871 9.7408 7.83257 9.75036 7.6093V4.20643Z" fill="#96BEDC"/>
</svg>
