<svg width="12" height="12" viewBox="0 0 12 12" fill="none" xmlns="http://www.w3.org/2000/svg">
<rect width="12" height="12" rx="6" fill="#F7931A"/>
<path fill-rule="evenodd" clip-rule="evenodd" d="M8.69559 5.2575C8.81334 4.4715 8.21447 4.04888 7.39622 3.76688L7.66172 2.70188L7.01372 2.54063L6.75497 3.5775C6.58826 3.53564 6.41723 3.49665 6.24647 3.45773L6.24646 3.45773L6.23559 3.45525L6.49622 2.41162L5.84822 2.25L5.58272 3.31463L5.55438 3.30815C5.42313 3.27814 5.29397 3.24861 5.16872 3.21712L5.16947 3.21375L4.27547 2.99063L4.10297 3.68288C4.10297 3.68288 4.58409 3.79313 4.57397 3.79988C4.83647 3.8655 4.88372 4.03912 4.87584 4.17712L4.57359 5.39025C4.59159 5.39475 4.61484 5.4015 4.64109 5.41162L4.57247 5.39475L4.14872 7.09425C4.11647 7.17375 4.03509 7.29338 3.85134 7.248C3.85809 7.25738 3.38034 7.13062 3.38034 7.13062L3.05859 7.87238L3.90234 8.08275C3.9929 8.1055 4.08246 8.12887 4.17109 8.152L4.17124 8.15204L4.17131 8.15206C4.23601 8.16895 4.30022 8.18571 4.36397 8.202L4.09584 9.279L4.74347 9.44025L5.00897 8.37525C5.18597 8.42287 5.35772 8.46713 5.52572 8.50913L5.26097 9.56962L5.90897 9.73088L6.17709 8.65613C7.28259 8.86538 8.11359 8.781 8.46347 7.78125C8.74547 6.9765 8.44959 6.51188 7.86797 6.20925C8.29172 6.11175 8.61047 5.83312 8.69559 5.2575ZM7.21434 7.33425C7.03099 8.07283 5.87504 7.7675 5.34593 7.62774L5.34584 7.62771C5.2982 7.61513 5.25565 7.60389 5.21934 7.59487L5.57559 6.168C5.61989 6.17908 5.67404 6.19124 5.73539 6.20502L5.73543 6.20503C6.28272 6.32798 7.40283 6.57961 7.21434 7.33425ZM5.84533 5.54267C6.28623 5.66039 7.2476 5.91706 7.41497 5.24588C7.58617 4.55938 6.65159 4.35264 6.1951 4.25165C6.14364 4.24027 6.09826 4.23023 6.06122 4.221L5.73872 5.51475C5.76927 5.52236 5.80514 5.53194 5.84533 5.54267Z" fill="white"/>
</svg>
