<svg width="12" height="12" viewBox="0 0 12 12" fill="none" xmlns="http://www.w3.org/2000/svg">
<rect width="12" height="12" rx="6" fill="#F3BA2F"/>
<path fill-rule="evenodd" clip-rule="evenodd" d="M4.5435 5.4015L6 3.945L7.45725 5.40225L8.30475 4.55475L6 2.25L3.696 4.554L4.5435 5.4015ZM2.25 6L3.0975 5.1525L3.945 6L3.0975 6.8475L2.25 6ZM6 8.055L4.5435 6.5985L3.69488 7.44488L3.696 7.446L6 9.75L8.30475 7.44488L7.45725 6.59775L6 8.055ZM8.055 6L8.9025 5.1525L9.75 6L8.9025 6.8475L8.055 6ZM6.86025 5.99925H6.8595L6 5.13975L5.36437 5.775L5.29125 5.84812L5.14087 5.99888L5.13937 6L5.14087 6.0015L6 6.86025L6.86025 6V5.99925Z" fill="white"/>
</svg>
