<svg width="40" height="40" viewBox="0 0 40 40" fill="none" xmlns="http://www.w3.org/2000/svg">
<rect width="40" height="40" rx="8" fill="#F3BA2F"/>
<path fill-rule="evenodd" clip-rule="evenodd" d="M15.145 18.005L20 13.15L24.8575 18.0075L27.6825 15.1825L20 7.5L12.32 15.18L15.145 18.005ZM7.5 20L10.325 17.175L13.15 20L10.325 22.825L7.5 20ZM20 26.85L15.145 21.995L12.3162 24.8162L12.32 24.82L20 32.5L27.6825 24.8162L24.8575 21.9925L20 26.85ZM26.85 20L29.675 17.175L32.5 20L29.675 22.825L26.85 20ZM22.8675 20V19.9975H22.865L20 17.1325L17.8813 19.25L17.6375 19.4937L17.1363 19.9963L17.1313 20L17.1363 20.005L20 22.8675L22.8675 20Z" fill="white"/>
</svg>
