<svg width="41" height="40" viewBox="0 0 41 40" fill="none" xmlns="http://www.w3.org/2000/svg">
<path d="M0.5 8C0.5 3.58172 4.08172 0 8.5 0H32.5C36.9183 0 40.5 3.58172 40.5 8V32C40.5 36.4183 36.9183 40 32.5 40H8.5C4.08172 40 0.5 36.4183 0.5 32V8Z" fill="#F7931A"/>
<path fill-rule="evenodd" clip-rule="evenodd" d="M29.4863 17.525C29.8788 14.905 27.8825 13.4963 25.155 12.5563L26.04 9.00625L23.88 8.46875L23.0175 11.925C22.4619 11.7855 21.8918 11.6555 21.3226 11.5258L21.3226 11.5258L21.2863 11.5175L22.155 8.03875L19.995 7.5L19.11 11.0487L19.0156 11.0272L19.0156 11.0272C18.5781 10.9271 18.1475 10.8287 17.73 10.7237L17.7325 10.7125L14.7525 9.96875L14.1775 12.2762C14.1775 12.2762 15.7813 12.6437 15.7475 12.6662C16.6225 12.885 16.78 13.4637 16.7538 13.9237L15.7463 17.9675C15.8063 17.9825 15.8838 18.005 15.9713 18.0387L15.7425 17.9825L14.33 23.6475C14.2225 23.9125 13.9513 24.3113 13.3388 24.16C13.3613 24.1912 11.7688 23.7687 11.7688 23.7687L10.6963 26.2412L13.5088 26.9425C13.8107 27.0183 14.1092 27.0963 14.4047 27.1734L14.4051 27.1735C14.6209 27.2298 14.835 27.2857 15.0475 27.34L14.1538 30.93L16.3125 31.4675L17.1975 27.9175C17.7875 28.0762 18.36 28.2238 18.92 28.3638L18.0375 31.8987L20.1975 32.4362L21.0913 28.8538C24.7763 29.5513 27.5463 29.27 28.7125 25.9375C29.6525 23.255 28.6663 21.7062 26.7275 20.6975C28.14 20.3725 29.2025 19.4437 29.4863 17.525ZM24.5488 24.4475C23.9376 26.9094 20.0845 25.8917 18.3207 25.4258L18.3207 25.4258C18.1618 25.3838 18.0199 25.3463 17.8988 25.3162L19.0863 20.56C19.234 20.5969 19.4145 20.6375 19.6191 20.6834C21.4434 21.0933 25.1771 21.932 24.5488 24.4475ZM19.9854 18.4756C21.4551 18.868 24.6596 19.7235 25.2175 17.4862C25.7882 15.1979 22.673 14.5088 21.1513 14.1722C20.9798 14.1342 20.8285 14.1008 20.705 14.07L19.63 18.3825C19.7319 18.4079 19.8514 18.4398 19.9854 18.4756Z" fill="white"/>
</svg>
