<svg width="12" height="12" viewBox="0 0 12 12" fill="none" xmlns="http://www.w3.org/2000/svg">
<rect width="12" height="12" rx="6" fill="#12192C"/>
<path d="M9.86928 5.5723L9.6533 5.21053L8.47081 3.22351H8.46541L8.42761 3.15332H7.99565L6.31641 6.10685L8.02265 9.04418H8.45461L8.46541 9.02798L9.87468 6.6144H9.00536L8.25483 7.94808L7.18573 6.10145L8.23323 4.25482L8.99456 5.5669L9.86928 5.5723Z" fill="#41E6AF"/>
<path d="M3.2975 5.09176L4.08583 3.74729L3.82126 3.32072L3.63767 3.01835L2.2878 5.39953L2.25 5.46433L2.46598 5.84229H5.86227L7.57391 2.91036L7.33633 2.5L4.96055 2.5054H4.92275L4.54479 2.5L4.74457 2.87797L4.94435 3.25593L6.49941 3.25053L5.43031 5.09176H3.2975Z" fill="#41E6AF"/>
<path d="M4.97636 3.53711C4.91696 3.53711 4.85217 3.54791 4.78738 3.56951C4.71718 3.5911 4.64699 3.6235 4.58219 3.6613C4.39861 3.77469 4.26902 3.93667 4.24742 4.08786C4.23663 4.15805 4.25282 4.21745 4.29062 4.26064C4.29602 4.27144 4.30682 4.27684 4.31222 4.28764C4.31762 4.29304 4.32302 4.29304 4.32842 4.29844C4.33382 4.30384 4.33382 4.30384 4.33922 4.30924C4.35002 4.31464 4.35542 4.32004 4.36621 4.32544C4.4796 4.37943 4.65779 4.36863 4.83057 4.28764L4.83597 4.28224C4.85217 4.27684 4.86837 4.26604 4.88457 4.26064C4.90076 4.25524 4.91156 4.24444 4.92776 4.23365C4.94396 4.22285 4.96016 4.21205 4.97636 4.20125C4.99256 4.19045 5.00336 4.17965 5.01955 4.16885L5.03035 4.16345C5.04115 4.15265 5.05195 4.14725 5.06275 4.13645C5.06815 4.13105 5.06815 4.13106 5.07355 4.12566C5.08435 4.12026 5.08975 4.10946 5.09515 4.10406C5.10055 4.09866 5.10595 4.09326 5.11135 4.08246C5.11675 4.07166 5.12754 4.06626 5.13294 4.05546C5.13834 4.05006 5.13834 4.05006 5.14374 4.04466C5.14914 4.03386 5.15994 4.02846 5.16534 4.01767L5.17614 4.00687C5.18154 3.99607 5.18694 3.99067 5.19234 3.97987C5.19234 3.97987 5.19234 3.97987 5.19234 3.97447L5.19774 3.96367C5.20854 3.95287 5.21394 3.93667 5.21934 3.92587C5.22474 3.91507 5.23013 3.89888 5.23553 3.88808L5.24093 3.88268C5.24093 3.87728 5.24633 3.87188 5.24633 3.87188C5.24633 3.86648 5.24633 3.86648 5.25173 3.86108C5.25173 3.85028 5.25713 3.84488 5.25713 3.83408C5.25713 3.82328 5.26253 3.82328 5.26253 3.81788C5.26253 3.81248 5.26253 3.80708 5.26253 3.80708C5.26253 3.79629 5.26253 3.79089 5.26253 3.78549V3.77469C5.26253 3.76389 5.26253 3.75849 5.26253 3.74769C5.26253 3.74229 5.26253 3.74229 5.26253 3.73689C5.26253 3.73149 5.26253 3.72609 5.26253 3.72609C5.26253 3.72069 5.26253 3.72069 5.26253 3.71529V3.70989C5.26253 3.69909 5.25713 3.6937 5.25173 3.6829C5.24633 3.6721 5.24093 3.6667 5.23553 3.6559C5.19774 3.57491 5.09515 3.53711 4.97636 3.53711Z" fill="#41E6AF"/>
<path d="M5.37127 3.93049C5.37127 3.94129 5.36587 3.94669 5.36047 3.95749C5.36047 3.96289 5.36047 3.96289 5.35507 3.96828C5.34967 3.98448 5.34427 3.99528 5.33347 4.01148C5.27408 4.12487 5.17689 4.23286 5.0581 4.31925C5.0419 4.33005 5.0257 4.34085 5.0095 4.35165C4.9933 4.36245 4.9771 4.37325 4.96091 4.37865H4.95551C4.95011 4.38405 4.94471 4.38405 4.93931 4.38945C4.92851 4.39485 4.92311 4.40025 4.91231 4.40564H4.90691C4.90151 4.40564 4.89611 4.41104 4.89071 4.41104C4.87991 4.41644 4.86911 4.42184 4.85832 4.42184L4.84752 4.42724C4.84752 4.42724 4.84752 4.42724 4.84212 4.42724C4.83672 4.42724 4.83132 4.43264 4.82592 4.43264C4.81512 4.43804 4.80432 4.43804 4.79352 4.44344L4.78272 4.44884H4.77732C4.76652 4.45424 4.75572 4.45424 4.74493 4.45964C4.73953 4.45964 4.73413 4.46504 4.72333 4.46504H4.71793C4.70713 4.46504 4.69633 4.47044 4.69093 4.47044C4.68553 4.47044 4.67473 4.47044 4.66933 4.47584H4.66393C4.65853 4.47584 4.65313 4.47584 4.64773 4.48124C4.64234 4.48124 4.63694 4.48124 4.63154 4.48124C4.61534 4.48124 4.59374 4.48664 4.57754 4.48664H4.57214C4.55594 4.48664 4.53974 4.48664 4.52355 4.48664C4.51815 4.48664 4.51275 4.48664 4.51275 4.48664H4.50735C4.49655 4.48664 4.48575 4.48664 4.47495 4.48124C4.46955 4.48124 4.46415 4.48124 4.45875 4.47584C4.44795 4.47584 4.43715 4.47044 4.42635 4.47044C4.42096 4.47044 4.41556 4.46504 4.41016 4.46504L4.70713 4.9456L5.34427 4.9402L5.67364 4.35705L5.37667 3.87109C5.37667 3.87649 5.37667 3.88189 5.37127 3.88729C5.37127 3.89269 5.37127 3.89269 5.37127 3.89809C5.37127 3.90349 5.36587 3.90889 5.36587 3.91969C5.37127 3.92509 5.37127 3.93049 5.37127 3.93049Z" fill="#41E6AF"/>
<path d="M8.75594 5.68574C8.78834 5.73433 8.80994 5.79373 8.82614 5.86392C8.84233 5.93411 8.85313 6.00971 8.85313 6.0853C8.85313 6.30128 8.78294 6.49566 8.66415 6.59285C8.61016 6.63605 8.55076 6.65765 8.49137 6.64685C8.48057 6.64685 8.46977 6.64145 8.45897 6.64145C8.45357 6.64145 8.44817 6.63605 8.44277 6.63605C8.43737 6.63605 8.43197 6.63065 8.42657 6.63065C8.41577 6.62525 8.40497 6.61985 8.39957 6.61445C8.29158 6.54426 8.21059 6.38767 8.18899 6.19869V6.19329C8.18899 6.17709 8.18359 6.16089 8.18359 6.13929C8.18359 6.1231 8.18359 6.1069 8.18359 6.0907C8.18359 6.0691 8.18359 6.0529 8.18359 6.0313C8.18359 6.01511 8.18359 5.99891 8.18899 5.98271V5.97191C8.18899 5.96111 8.19439 5.94491 8.19439 5.93411C8.19439 5.92871 8.19439 5.92331 8.19439 5.91791C8.19439 5.90712 8.19979 5.89632 8.19979 5.88552C8.19979 5.87472 8.20519 5.86932 8.20519 5.85852C8.21059 5.84772 8.21059 5.83692 8.21599 5.82612C8.21599 5.82072 8.22139 5.81532 8.22139 5.80992C8.22679 5.79913 8.22679 5.78833 8.23219 5.77753L8.23759 5.76133C8.24299 5.75053 8.24839 5.74513 8.24839 5.73433C8.24839 5.73433 8.24839 5.73433 8.24839 5.72893L8.25379 5.71813C8.25919 5.70193 8.26999 5.69114 8.27539 5.68034C8.28078 5.66954 8.29158 5.65874 8.29698 5.64794L8.30238 5.64254C8.30778 5.63714 8.30778 5.63714 8.31318 5.63174C8.31858 5.62634 8.31858 5.62634 8.31858 5.62094C8.32398 5.61554 8.32938 5.61014 8.33478 5.60474C8.34018 5.59934 8.34558 5.59394 8.34558 5.59394C8.35098 5.58854 8.35098 5.58854 8.35638 5.58315C8.36178 5.57775 8.36718 5.57235 8.37258 5.56695L8.38338 5.56155C8.38878 5.55615 8.39957 5.55075 8.40497 5.54535C8.41037 5.54535 8.41037 5.54535 8.41577 5.53995C8.42117 5.53995 8.42657 5.53455 8.42657 5.53455C8.42657 5.53455 8.43197 5.53455 8.43197 5.52915H8.43737C8.44817 5.52915 8.45357 5.52375 8.46437 5.52375C8.47517 5.52375 8.48597 5.52375 8.49677 5.52375C8.61015 5.51835 8.69115 5.58315 8.75594 5.68574Z" fill="#41E6AF"/>
<path d="M8.21054 5.55635C8.20514 5.56175 8.19974 5.57255 8.19435 5.57795C8.19435 5.58335 8.18895 5.58335 8.18895 5.58875C8.17815 5.59955 8.17275 5.61575 8.16195 5.62654C8.09175 5.73453 8.05396 5.87492 8.04316 6.02071C8.04316 6.04231 8.04316 6.05851 8.04316 6.0801C8.04316 6.0963 8.04316 6.1179 8.04316 6.1341V6.1395C8.04316 6.1449 8.04316 6.1557 8.04316 6.1611C8.04316 6.17189 8.04316 6.18269 8.04856 6.19349V6.19889C8.04856 6.20429 8.04856 6.20969 8.04856 6.21509C8.04856 6.22589 8.05396 6.23669 8.05396 6.24749V6.25829C8.05396 6.25829 8.05396 6.25829 8.05396 6.26369C8.05396 6.26909 8.05396 6.27449 8.05936 6.27988C8.05936 6.29068 8.06476 6.30148 8.06476 6.31228L8.07016 6.32308V6.32848C8.07016 6.33928 8.07556 6.35008 8.08096 6.36088C8.08096 6.36628 8.08636 6.37168 8.08636 6.37708V6.38248C8.09175 6.39327 8.09175 6.39867 8.09715 6.40947C8.09715 6.41487 8.10255 6.42027 8.10795 6.43107V6.43647C8.10795 6.44187 8.11335 6.44727 8.11335 6.45267C8.11875 6.45807 8.11875 6.46347 8.11875 6.46347C8.12415 6.47967 8.13495 6.49586 8.14575 6.51206L8.15115 6.51746C8.16195 6.53366 8.16735 6.54446 8.17815 6.55526C8.17815 6.56066 8.18355 6.56066 8.18355 6.56606L8.18895 6.57146C8.19435 6.58226 8.20514 6.58766 8.21054 6.59846C8.21594 6.60385 8.21594 6.60925 8.22134 6.60925C8.23214 6.62005 8.23754 6.62545 8.24294 6.63625C8.24834 6.64165 8.25374 6.64165 8.25374 6.64705H7.68679L7.35742 6.1017L7.68139 5.51855H8.24834C8.24294 5.52395 8.24294 5.52395 8.23754 5.52935L8.23214 5.53475C8.22674 5.54015 8.22134 5.54555 8.21054 5.55635C8.21054 5.55635 8.21594 5.55635 8.21054 5.55635Z" fill="#41E6AF"/>
<path d="M4.97636 8.66056C4.91696 8.66056 4.85217 8.64976 4.78738 8.62816C4.71718 8.60657 4.64699 8.57417 4.58219 8.53637C4.39861 8.42298 4.26902 8.261 4.24742 8.10981C4.23663 8.03962 4.25282 7.98022 4.29062 7.93703C4.29602 7.92623 4.30682 7.92083 4.31222 7.91003C4.31762 7.90463 4.32302 7.90463 4.32842 7.89923C4.33382 7.89383 4.33382 7.89383 4.33922 7.88843C4.35002 7.88303 4.35542 7.87763 4.36621 7.87223C4.4796 7.81824 4.65779 7.82904 4.83057 7.91003L4.83597 7.91543C4.85217 7.92083 4.86837 7.93163 4.88457 7.93703C4.90076 7.94243 4.91156 7.95323 4.92776 7.96402C4.94396 7.97482 4.96016 7.98562 4.97636 7.99642C4.99256 8.00722 5.00336 8.01802 5.01955 8.02882L5.03035 8.03422C5.04115 8.04502 5.05195 8.05042 5.06275 8.06122C5.06815 8.06662 5.06815 8.06662 5.07355 8.07202C5.08435 8.07741 5.08975 8.08821 5.09515 8.09361C5.10055 8.09901 5.10595 8.10441 5.11135 8.11521C5.11675 8.12601 5.12754 8.13141 5.13294 8.14221C5.13834 8.14761 5.13834 8.14761 5.14374 8.15301C5.14914 8.16381 5.15994 8.16921 5.16534 8.18001L5.17614 8.1908C5.18154 8.2016 5.18694 8.207 5.19234 8.2178V8.2232L5.19774 8.234C5.20854 8.2448 5.21394 8.261 5.21934 8.2718C5.22474 8.2826 5.23013 8.29879 5.23553 8.30959L5.24093 8.31499C5.24093 8.32039 5.24633 8.32579 5.24633 8.32579C5.24633 8.33119 5.24633 8.33119 5.25173 8.33659C5.25173 8.34739 5.25713 8.35279 5.25713 8.36359C5.25713 8.37439 5.26253 8.37439 5.26253 8.37979C5.26253 8.38519 5.26253 8.39059 5.26253 8.39059C5.26253 8.40139 5.26253 8.40678 5.26253 8.41218V8.42298C5.26253 8.43378 5.26253 8.43918 5.26253 8.44998C5.26253 8.45538 5.26253 8.45538 5.26253 8.46078C5.26253 8.46618 5.26253 8.47158 5.26253 8.47158C5.26253 8.47698 5.26253 8.47698 5.26253 8.48238V8.48778C5.26253 8.49858 5.25713 8.50398 5.25173 8.51477C5.24633 8.52557 5.24093 8.53097 5.23553 8.54177C5.19774 8.62276 5.09515 8.66596 4.97636 8.66056Z" fill="#41E6AF"/>
<path d="M5.37127 8.26706C5.37127 8.25626 5.36587 8.25086 5.36047 8.24006C5.36047 8.23466 5.36047 8.23466 5.35507 8.22926C5.34967 8.21307 5.34427 8.20227 5.33347 8.18607C5.27408 8.07268 5.17689 7.96469 5.0581 7.8783C5.0419 7.8675 5.0257 7.8567 5.0095 7.8459C4.9933 7.8351 4.9771 7.8243 4.96091 7.8189H4.95551C4.95011 7.8135 4.94471 7.8135 4.93931 7.8081C4.92851 7.8027 4.92311 7.7973 4.91231 7.7919H4.90691C4.90151 7.7919 4.89611 7.7865 4.89071 7.7865C4.87991 7.7811 4.86911 7.77571 4.85832 7.77571L4.84752 7.77031C4.84752 7.77031 4.84752 7.77031 4.84212 7.77031C4.83672 7.77031 4.83132 7.76491 4.82592 7.76491C4.81512 7.75951 4.80432 7.75951 4.79352 7.75411L4.78272 7.74871H4.77732C4.76652 7.74331 4.75572 7.74331 4.74493 7.73791C4.73953 7.73791 4.73413 7.73251 4.72333 7.73251H4.71793C4.70713 7.73251 4.69633 7.72711 4.69093 7.72711C4.68553 7.72711 4.67473 7.72711 4.66933 7.72171H4.66393C4.65853 7.72171 4.65313 7.72171 4.64773 7.71631C4.64234 7.71631 4.63694 7.71631 4.63154 7.71631C4.61534 7.71631 4.59374 7.71091 4.57754 7.71091H4.57214C4.55594 7.71091 4.53974 7.71091 4.52355 7.71091C4.51815 7.71091 4.51275 7.71091 4.51275 7.71091H4.50735C4.49655 7.71091 4.48575 7.71091 4.47495 7.71631C4.46955 7.71631 4.46415 7.71631 4.45875 7.72171C4.44795 7.72171 4.43715 7.72711 4.42635 7.72711C4.42096 7.72711 4.41556 7.73251 4.41016 7.73251L4.70713 7.25195L5.34427 7.25735L5.67364 7.8405L5.37667 8.32645C5.37667 8.32106 5.37667 8.31566 5.37127 8.31026C5.37127 8.30486 5.37127 8.30486 5.37127 8.29946C5.37127 8.29406 5.36587 8.28866 5.36587 8.27786C5.37127 8.27246 5.37127 8.26706 5.37127 8.26706Z" fill="#41E6AF"/>
<path d="M6.49941 8.94723L4.94435 8.94183L4.70677 9.38999L4.54479 9.69776L4.96055 9.69236V9.69776L7.33633 9.70316L7.57391 9.2928L5.86227 6.36087L2.46598 6.35547L2.25 6.73343L2.2932 6.80363H2.2878L3.63767 9.17941L4.08583 8.45048L3.2975 7.1114H5.43031L6.49941 8.94723Z" fill="#41E6AF"/>
</svg>
