<svg width="167" height="176" viewBox="0 0 167 176" fill="none" xmlns="http://www.w3.org/2000/svg">
<path d="M131.988 60.8327C133.27 60.0926 134.849 60.0926 136.131 60.8327L145.424 66.1982C146.706 66.9383 147.496 68.3059 147.496 69.786V80.5171C147.496 81.9972 146.706 83.3649 145.424 84.105L136.131 89.4705C134.849 90.2106 133.27 90.2106 131.988 89.4705L122.694 84.105C121.413 83.3649 120.623 81.9972 120.623 80.5171V69.786C120.623 68.3059 121.413 66.9383 122.694 66.1982L131.988 60.8327Z" fill="#FFC211"/>
<path d="M35.7706 60.8327C37.0524 60.0926 38.6316 60.0926 39.9134 60.8327L49.2069 66.1982C50.4887 66.9383 51.2783 68.3059 51.2783 69.786V80.5171C51.2783 81.9972 50.4887 83.3649 49.2069 84.105L39.9134 89.4705C38.6316 90.2106 37.0524 90.2106 35.7706 89.4705L26.4772 84.105C25.1954 83.3649 24.4057 81.9972 24.4057 80.5171V69.786C24.4057 68.3059 25.1954 66.9383 26.4772 66.1982L35.7706 60.8327Z" fill="#FFC211"/>
<path d="M132.417 108.942C133.698 108.202 135.278 108.202 136.559 108.942L145.853 114.308C147.135 115.048 147.924 116.415 147.924 117.895V128.627C147.924 130.107 147.135 131.474 145.853 132.214L136.559 137.58C135.278 138.32 133.698 138.32 132.417 137.58L127.77 134.897L123.123 132.214C121.841 131.474 121.052 130.107 121.052 128.627V117.895C121.052 116.415 121.841 115.048 123.123 114.308L132.417 108.942Z" fill="#FFC211"/>
<path d="M35.7706 108.942C37.0524 108.202 38.6316 108.202 39.9134 108.942L49.2069 114.308C50.4887 115.048 51.2783 116.415 51.2783 117.895V128.627C51.2783 130.107 50.4887 131.474 49.2069 132.214L39.9134 137.58C38.6316 138.32 37.0524 138.32 35.7706 137.58L26.4772 132.214C25.1954 131.474 24.4057 130.107 24.4057 128.627V117.895C24.4057 116.415 25.1954 115.048 26.4772 114.308L35.7706 108.942Z" fill="#FFC211"/>
<path d="M33.6381 102.55C34.9199 101.81 36.4992 101.81 37.781 102.55L49.8406 109.513C51.1224 110.253 51.9121 111.621 51.9121 113.101V127.026C51.9121 128.506 51.1224 129.874 49.8406 130.614L37.781 137.577C36.4992 138.317 34.9199 138.317 33.6381 137.577L21.5785 130.614C20.2967 129.874 19.507 128.506 19.507 127.026V113.101C19.507 111.621 20.2967 110.253 21.5785 109.513L33.6381 102.55Z" stroke="#001F58" stroke-width="2"/>
<path d="M52.0012 110.787L35.7987 120.142M35.7987 120.142L19.5962 110.787M35.7987 120.142V137.79" stroke="#001F58" stroke-width="2"/>
<path d="M129.856 102.55C131.138 101.81 132.717 101.81 133.999 102.55L146.058 109.513C147.34 110.253 148.13 111.621 148.13 113.101V127.026C148.13 128.506 147.34 129.874 146.058 130.614L133.999 137.577C132.717 138.317 131.138 138.317 129.856 137.577L123.826 134.095L117.796 130.614C116.514 129.874 115.725 128.506 115.725 127.026V113.101C115.725 111.621 116.514 110.253 117.796 109.513L129.856 102.55Z" stroke="#001F58" stroke-width="2"/>
<path d="M148.218 110.787L132.016 120.142M132.016 120.142L115.813 110.787M132.016 120.142V137.79" stroke="#001F58" stroke-width="2"/>
<line x1="92.8138" y1="42.4592" x2="121.375" y2="58.9492" stroke="#001F58" stroke-width="2" stroke-linecap="round" stroke-dasharray="2 4"/>
<line x1="74.7067" y1="43.3006" x2="47.8412" y2="58.8114" stroke="#001F58" stroke-width="2" stroke-linecap="round" stroke-dasharray="2 4"/>
<line x1="35.5479" y1="90.8691" x2="35.5479" y2="110.173" stroke="#001F58" stroke-width="2" stroke-linecap="round" stroke-dasharray="2 4"/>
<line x1="132.482" y1="90.8691" x2="132.482" y2="110.173" stroke="#001F58" stroke-width="2" stroke-linecap="round" stroke-dasharray="2 4"/>
<line x1="67.1706" y1="137.346" x2="44.5007" y2="124.257" stroke="#001F58" stroke-width="2" stroke-linecap="round" stroke-dasharray="2 4"/>
<path d="M33.6381 54.4411C34.9199 53.701 36.4992 53.701 37.781 54.4411L49.8406 61.4037C51.1224 62.1438 51.9121 63.5114 51.9121 64.9915V78.9168C51.9121 80.3969 51.1224 81.7646 49.8406 82.5046L37.781 89.4673C36.4992 90.2073 34.9199 90.2073 33.6381 89.4673L21.5785 82.5046C20.2967 81.7646 19.507 80.3969 19.507 78.9168V64.9915C19.507 63.5114 20.2967 62.1438 21.5785 61.4037L33.6381 54.4411Z" stroke="#001F58" stroke-width="2"/>
<path d="M52.0012 62.6777L35.7987 72.0323M35.7987 72.0323L19.5962 62.6777M35.7987 72.0323V89.6808" stroke="#001F58" stroke-width="2"/>
<path d="M129.856 54.4411C131.138 53.701 132.717 53.701 133.999 54.4411L146.059 61.4037C147.341 62.1438 148.13 63.5114 148.13 64.9915V78.9168C148.13 80.3969 147.341 81.7646 146.059 82.5046L133.999 89.4673C132.717 90.2073 131.138 90.2073 129.856 89.4673L117.797 82.5046C116.515 81.7646 115.725 80.3969 115.725 78.9168V64.9915C115.725 63.5114 116.515 62.1438 117.797 61.4037L129.856 54.4411Z" stroke="#001F58" stroke-width="2"/>
<path d="M148.219 62.6777L132.017 72.0323M132.017 72.0323L115.814 62.6777M132.017 72.0323V89.6808" stroke="#001F58" stroke-width="2"/>
<path d="M97.959 138.869L122.097 124.933" stroke="#001F58" stroke-width="2" stroke-linecap="round" stroke-dasharray="2 4"/>
<path d="M82.0771 129.277C83.3589 128.537 84.9381 128.537 86.2199 129.277L98.2796 136.24C99.5614 136.98 100.351 138.347 100.351 139.827V153.753C100.351 155.233 99.5614 156.601 98.2796 157.341L86.2199 164.303C84.9381 165.043 83.3589 165.043 82.0771 164.303L70.0174 157.341C68.7356 156.601 67.946 155.233 67.946 153.753V139.827C67.946 138.347 68.7356 136.98 70.0174 136.24L82.0771 129.277Z" fill="white" stroke="#001F58" stroke-width="2"/>
<path d="M84.5328 134.744C85.8146 134.004 87.3938 134.004 88.6756 134.744L97.9691 140.109C99.2509 140.849 100.04 142.217 100.04 143.697V154.428C100.04 155.908 99.2509 157.276 97.9691 158.016L88.6756 163.382C87.3938 164.122 85.8146 164.122 84.5328 163.382L75.2394 158.016C73.9576 157.276 73.168 155.908 73.168 154.428V143.697C73.168 142.217 73.9576 140.849 75.2394 140.109L84.5328 134.744Z" fill="#FFC211"/>
<path d="M82.0771 129.277C83.3589 128.537 84.9381 128.537 86.2199 129.277L98.2796 136.24C99.5614 136.98 100.351 138.347 100.351 139.827V153.753C100.351 155.233 99.5614 156.601 98.2796 157.341L86.2199 164.303C84.9381 165.043 83.3589 165.043 82.0771 164.303L70.0174 157.341C68.7356 156.601 67.946 155.233 67.946 153.753V139.827C67.946 138.347 68.7356 136.98 70.0174 136.24L82.0771 129.277Z" stroke="#001F58" stroke-width="2"/>
<path d="M100.44 137.515L84.2377 146.869M84.2377 146.869L68.0352 137.515M84.2377 146.869V164.518" stroke="#001F58" stroke-width="2"/>
<rect x="59.001" y="28.5" width="49.4718" height="83.9121" rx="7" fill="white" stroke="#001F58" stroke-width="2"/>
<rect x="60.7578" y="31.0059" width="47.5069" height="81.106" rx="5" fill="#FFC211"/>
<rect x="64.8232" y="32.8271" width="39.2269" height="70.439" rx="3" fill="white" stroke="#001F58" stroke-width="2"/>
<rect x="59" y="28.5" width="49.4718" height="83.9121" rx="7" stroke="#001F58" stroke-width="2"/>
<line x1="77.3096" y1="107.846" x2="90.1309" y2="107.846" stroke="#001F58" stroke-width="2" stroke-linecap="round"/>
<path d="M83.9702 62.8518L83.5928 63.2022V66.2389L88.9932 72.5749L91.1128 70.0931L84.4638 62.3555L83.9702 62.8518Z" fill="#FFC211"/>
<path d="M83.5913 57.8881V60.078L84.0559 60.6327L84.5204 61.1583L91.9243 53.8003L87.9465 53.3623L83.5913 57.8881Z" fill="#FFC211"/>
<path d="M79.6143 55.4059L80.9789 57.0118L82.0822 58.2966L82.4597 57.917L82.7791 57.5666V53.2744L79.6143 53.6248V55.4059Z" fill="#FFC211"/>
<path d="M86.9308 53.2454L84.9274 53.041L83.5918 53.187V56.72L86.9308 53.2454Z" fill="#FFC211"/>
<path d="M91.6329 69.4796L98.2528 61.742L95.4655 57.8294L92.7072 54.1504L85.042 61.7712L91.6329 69.4796Z" fill="#FFC211"/>
<path d="M79.8169 61.8291L81.588 63.873L81.6751 63.9898L82.7784 62.8803V60.3984L82.0526 59.5225L79.8169 61.8291Z" fill="#FFC211"/>
<path d="M82.7794 65.3043V64.0195L82.1987 64.6035L82.7794 65.3043Z" fill="#FFC211"/>
<path d="M82.604 58.9388L82.6911 59.0264L82.7782 59.1432V58.7344L82.6911 58.822L82.604 58.9388Z" fill="#FFC211"/>
<path d="M81.0945 64.5742L79.6138 62.8223V66.0341L80.1945 65.4501L81.0945 64.5742Z" fill="#FFC211"/>
<path d="M83.5913 67.4941V75.7865L84.9269 77.334L88.4692 73.1878L83.5913 67.4941Z" fill="#FFC211"/>
<path d="M81.502 58.9104L80.631 57.8884L79.6147 56.6621V60.8959L80.6019 59.8447L81.502 58.9104Z" fill="#FFC211"/>
<path d="M82.7795 66.5598L81.6181 65.1875L80.4568 66.3262L79.6147 67.173V71.1148L82.7795 74.8522V66.5598Z" fill="#FFC211"/>
<path d="M78.801 61.7425V55.7276V54.4721V53.7129L77.3492 53.8589L74.3877 57.8299L71.5713 61.7425L78.801 70.1809V67.991V66.8522V61.8885V61.7425Z" fill="#FFC211"/>
<path d="M83.9402 61.7418L83.8241 61.5958L83.5918 61.333V62.063L83.7079 61.9462L83.9402 61.7418Z" fill="#FFC211"/>
<path d="M70.6367 18.195L66.4869 6.88528M118.859 40.8096L130.141 36.7368M84.4636 15.0004L84.4636 1.50037M57.3372 26.9711L48.8084 18.4422M110.46 27.152L118.931 18.6811M98.2977 18.7706L102.763 7.64067M110.462 27.1534L118.932 18.6825M49.1132 40.8096L37.8315 36.7368" stroke="#001F58" stroke-width="2" stroke-linecap="round" stroke-dasharray="2 4"/>
</svg>
