<svg width="12" height="12" viewBox="0 0 12 12" fill="none" xmlns="http://www.w3.org/2000/svg">
<rect width="12" height="12" rx="6" fill="#8247E5"/>
<path d="M6 12C9.31371 12 12 9.31371 12 6C12 2.68629 9.31371 0 6 0C2.68629 0 0 2.68629 0 6C0 9.31371 2.68629 12 6 12Z" fill="#8247E5"/>
<path d="M7.90959 4.73573C7.7712 4.65328 7.59132 4.65328 7.43912 4.73573L6.35977 5.36787L5.62637 5.78014L4.54705 6.41226C4.40867 6.49471 4.22878 6.49471 4.07657 6.41226L3.21863 5.91754C3.08026 5.83509 2.98339 5.68394 2.98339 5.51903V4.54334C2.98339 4.37844 3.06642 4.22727 3.21863 4.14482L4.06273 3.66385C4.20111 3.5814 4.38099 3.5814 4.53321 3.66385L5.37731 4.14482C5.51567 4.22727 5.61254 4.37844 5.61254 4.54334V5.17548L6.34594 4.74947V4.11734C6.34594 3.95243 6.26292 3.80127 6.1107 3.71882L4.54705 2.81184C4.40867 2.72939 4.22878 2.72939 4.07657 2.81184L2.48524 3.71882C2.33303 3.80127 2.25 3.95243 2.25 4.11734V5.94504C2.25 6.10994 2.33303 6.26112 2.48524 6.34357L4.07657 7.25054C4.21494 7.33299 4.39483 7.33299 4.54705 7.25054L5.62637 6.63214L6.35977 6.20614L7.43912 5.58774C7.57749 5.50529 7.75737 5.50529 7.90959 5.58774L8.75368 6.06871C8.89205 6.15116 8.98892 6.30234 8.98892 6.46724V7.44291C8.98892 7.60784 8.90591 7.75899 8.75368 7.84144L7.90959 8.33616C7.7712 8.41861 7.59132 8.41861 7.43912 8.33616L6.59503 7.85519C6.45664 7.77274 6.35977 7.62156 6.35977 7.45666V6.82454L5.62637 7.25054V7.88266C5.62637 8.04756 5.70941 8.19874 5.86161 8.28119L7.45295 9.18816C7.59132 9.27061 7.7712 9.27061 7.92342 9.18816L9.51477 8.28119C9.65313 8.19874 9.75 8.04756 9.75 7.88266V6.05496C9.75 5.89006 9.66696 5.73892 9.51477 5.65647L7.90959 4.73573Z" fill="white"/>
</svg>
