<svg width="180" height="180" viewBox="0 0 180 180" fill="none" xmlns="http://www.w3.org/2000/svg">
<rect x="62.2461" y="42.0215" width="58.4409" height="99.7731" rx="5" fill="#FFC211"/>
<rect x="66.9453" y="44.0332" width="48.7156" height="87.1113" rx="3" fill="white" stroke="#001F58" stroke-width="2"/>
<rect x="59.8301" y="38.7241" width="61.3184" height="103.685" rx="7" stroke="#001F58" stroke-width="2"/>
<line x1="83.127" y1="136.786" x2="99.3596" y2="136.786" stroke="#001F58" stroke-width="2" stroke-linecap="round"/>
<path d="M130.044 122C124.747 122 121.618 122 117.044 122C117.044 110.402 115.36 102 123.544 102C131.727 102 130.044 110.402 130.044 122Z" fill="white"/>
<path d="M117.001 114C117.002 112.615 116.749 102 123.296 102C129.843 102 129.5 106.5 129.5 107" stroke="#001F58" stroke-width="2" stroke-linecap="round"/>
<rect x="109" y="111.951" width="28.6829" height="22.0488" rx="3" fill="white" stroke="#001F58" stroke-width="2"/>
<rect x="112.146" y="114.268" width="26.5366" height="20.7317" rx="4" fill="#FFC211"/>
<rect x="109" y="111.951" width="28.6829" height="22.0488" rx="3" stroke="#001F58" stroke-width="2"/>
<circle cx="123" cy="122.5" r="2.5" fill="#001F58"/>
<rect x="122" y="123" width="2" height="4" rx="1" fill="#001F58"/>
<rect x="72" y="67.4141" width="2" height="10.1654" rx="1" transform="rotate(-45 72 67.4141)" fill="#001F58"/>
<rect x="79.1875" y="66" width="2" height="10.1654" rx="1" transform="rotate(45 79.1875 66)" fill="#001F58"/>
<rect x="101" y="67.4141" width="2" height="10.1654" rx="1" transform="rotate(-45 101 67.4141)" fill="#001F58"/>
<rect x="108.188" y="66" width="2" height="10.1654" rx="1" transform="rotate(45 108.188 66)" fill="#001F58"/>
<path d="M86 82.5C86 82.5 86.5 79 91.75 79C97 79 97.5 82.5 97.5 82.5" stroke="#001F58" stroke-width="2" stroke-linecap="round"/>
</svg>
