<svg width="41" height="40" viewBox="0 0 41 40" fill="none" xmlns="http://www.w3.org/2000/svg">
<g clip-path="url(#clip0_12204_263968)">
<path d="M0.5 8C0.5 3.58172 4.08172 0 8.5 0H32.5C36.9183 0 40.5 3.58172 40.5 8V32C40.5 36.4183 36.9183 40 32.5 40H8.5C4.08172 40 0.5 36.4183 0.5 32V8Z" fill="black"/>
<path d="M20.5 40C31.5457 40 40.5 31.0457 40.5 20C40.5 8.95431 31.5457 0 20.5 0C9.45431 0 0.5 8.95431 0.5 20C0.5 31.0457 9.45431 40 20.5 40Z" fill="black"/>
<path fill-rule="evenodd" clip-rule="evenodd" d="M12.8421 25.513C12.9174 25.4302 13.0091 25.3641 13.1114 25.3188C13.2136 25.2735 13.3243 25.2501 13.4361 25.25L31.7642 25.265C31.8423 25.2652 31.9186 25.288 31.9839 25.3307C32.0493 25.3734 32.1008 25.4342 32.1322 25.5056C32.1637 25.577 32.1737 25.6561 32.1611 25.7331C32.1485 25.8101 32.1138 25.8818 32.0612 25.9395L28.1582 30.237C28.0829 30.3198 27.9911 30.386 27.8888 30.4313C27.7864 30.4766 27.6757 30.5 27.5637 30.5L9.23617 30.485C9.15812 30.4848 9.08179 30.462 9.01646 30.4193C8.95113 30.3766 8.89961 30.3158 8.86816 30.2444C8.83671 30.173 8.82667 30.0939 8.83928 30.0169C8.85188 29.9399 8.88659 29.8682 8.93917 29.8105L12.8421 25.513ZM32.0612 21.9355C32.1138 21.9932 32.1485 22.0649 32.1611 22.1419C32.1737 22.2189 32.1637 22.298 32.1322 22.3694C32.1008 22.4408 32.0493 22.5016 31.9839 22.5443C31.9186 22.587 31.8423 22.6098 31.7642 22.61L13.4366 22.625C13.3247 22.625 13.214 22.6016 13.1116 22.5563C13.0092 22.511 12.9174 22.4448 12.8421 22.362L8.93917 18.062C8.88659 18.0043 8.85188 17.9326 8.83928 17.8556C8.82667 17.7786 8.83671 17.6995 8.86816 17.6281C8.89961 17.5567 8.95113 17.4959 9.01646 17.4532C9.08179 17.4105 9.15812 17.3877 9.23617 17.3875L27.5642 17.3725C27.6761 17.3726 27.7867 17.396 27.889 17.4413C27.9913 17.4866 28.083 17.5527 28.1582 17.6355L32.0612 21.9355ZM12.8421 9.763C12.9174 9.68023 13.0091 9.61408 13.1114 9.56879C13.2136 9.52351 13.3243 9.50007 13.4361 9.5L31.7642 9.515C31.8423 9.51516 31.9186 9.53798 31.9839 9.58069C32.0493 9.6234 32.1008 9.68416 32.1322 9.75559C32.1637 9.82703 32.1737 9.90606 32.1611 9.98308C32.1485 10.0601 32.1138 10.1318 32.0612 10.1895L28.1582 14.487C28.0829 14.5698 27.9911 14.636 27.8888 14.6813C27.7864 14.7266 27.6757 14.75 27.5637 14.75L9.23617 14.735C9.15812 14.7348 9.08179 14.712 9.01646 14.6693C8.95113 14.6266 8.89961 14.5658 8.86816 14.4944C8.83671 14.423 8.82667 14.3439 8.83928 14.2669C8.85188 14.1899 8.88659 14.1182 8.93917 14.0605L12.8421 9.763Z" fill="url(#paint0_linear_12204_263968)"/>
</g>
<defs>
<linearGradient id="paint0_linear_12204_263968" x1="9.54217" y1="30.958" x2="31.4581" y2="9.04199" gradientUnits="userSpaceOnUse">
<stop stop-color="#9945FF"/>
<stop offset="0.2" stop-color="#7962E7"/>
<stop offset="1" stop-color="#00D18C"/>
</linearGradient>
<clipPath id="clip0_12204_263968">
<path d="M0.5 8C0.5 3.58172 4.08172 0 8.5 0H32.5C36.9183 0 40.5 3.58172 40.5 8V32C40.5 36.4183 36.9183 40 32.5 40H8.5C4.08172 40 0.5 36.4183 0.5 32V8Z" fill="white"/>
</clipPath>
</defs>
</svg>
