<svg width="41" height="40" viewBox="0 0 41 40" fill="none" xmlns="http://www.w3.org/2000/svg">
<path d="M0.5 8C0.5 3.58172 4.08172 0 8.5 0H32.5C36.9183 0 40.5 3.58172 40.5 8V32C40.5 36.4183 36.9183 40 32.5 40H8.5C4.08172 40 0.5 36.4183 0.5 32V8Z" fill="#EB0029"/>
<path d="M28.6816 12.7565L8.83301 9.1665L19.2787 34.9998L33.833 17.5716L28.6816 12.7565ZM28.3622 14.3383L31.3984 17.1746L23.094 18.6526L28.3622 14.3383ZM21.2908 18.357L12.5378 11.2223L26.8435 13.8094L21.2908 18.357ZM20.6669 19.6188L19.2401 31.2157L11.5448 12.1824L20.6669 19.6188ZM21.988 20.2344L31.1834 18.5976L20.6358 31.2279L21.988 20.2344Z" fill="white"/>
</svg>
