<svg width="41" height="40" viewBox="0 0 41 40" fill="none" xmlns="http://www.w3.org/2000/svg">
<g clip-path="url(#clip0_12198_257534)">
<g clip-path="url(#clip1_12198_257534)">
<rect width="40" height="40" transform="translate(0.5)" fill="url(#paint0_linear_12198_257534)"/>
<g filter="url(#filter0_di_12198_257534)">
<path fill-rule="evenodd" clip-rule="evenodd" d="M20.5142 9.15332L22.4734 9.35208L19.2081 12.7309V9.29529L20.5142 9.15332ZM15.3182 11.4532L16.6527 13.0149L17.7316 14.2642L18.1008 13.8951L18.4131 13.5543V9.38046L15.3182 9.72118V11.4532ZM19.2081 15.9962V13.8667L23.4671 9.46567L27.3571 9.89157L20.1167 17.0468L19.6624 16.5357L19.2081 15.9962ZM19.2081 19.0344L19.5772 18.6936L20.0599 18.2109L26.5621 25.7353L24.4893 28.1487L19.2081 21.9873V19.0344ZM27.0731 25.098L33.5469 17.5736L30.8211 13.7689L28.1237 10.1913L20.6277 17.602L27.0731 25.098ZM17.2489 19.6874L15.5169 17.6998L17.7032 15.4567L18.4131 16.3085V18.722L17.3341 19.801L17.2489 19.6874ZM18.4131 21.0787V19.8293L17.8453 20.3972L18.4131 21.0787ZM18.3279 14.974L18.2428 14.8888L18.3279 14.7752L18.4131 14.6901V15.0876L18.3279 14.974ZM16.7663 20.3688L15.3182 18.6652V21.7885L15.8861 21.2206L16.7663 20.3688ZM19.2081 31.272V23.2082L23.9782 28.745L20.5142 32.7769L19.2081 31.272ZM17.1638 14.8605L16.312 13.8667L15.3182 12.6742V16.7913L16.2836 15.7691L17.1638 14.8605ZM17.2773 20.965L18.4131 22.2996V30.3634L15.3182 26.729V22.8958L16.1416 22.0724L17.2773 20.965ZM14.5232 17.6146V11.7655V10.5446V9.80637L13.1035 9.94834L10.2073 13.8099L7.45312 17.6146L14.5232 25.8204V23.6909V22.5835V17.7566V17.6146ZM19.4352 17.4727L19.5488 17.6147L19.3217 17.8134L19.2081 17.927V17.2171L19.4352 17.4727Z" fill="#F5BC21"/>
<path fill-rule="evenodd" clip-rule="evenodd" d="M20.5142 9.15332L22.4734 9.35208L19.2081 12.7309V9.29529L20.5142 9.15332ZM15.3182 11.4532L16.6527 13.0149L17.7316 14.2642L18.1008 13.8951L18.4131 13.5543V9.38046L15.3182 9.72118V11.4532ZM19.2081 15.9962V13.8667L23.4671 9.46567L27.3571 9.89157L20.1167 17.0468L19.6624 16.5357L19.2081 15.9962ZM19.2081 19.0344L19.5772 18.6936L20.0599 18.2109L26.5621 25.7353L24.4893 28.1487L19.2081 21.9873V19.0344ZM27.0731 25.098L33.5469 17.5736L30.8211 13.7689L28.1237 10.1913L20.6277 17.602L27.0731 25.098ZM17.2489 19.6874L15.5169 17.6998L17.7032 15.4567L18.4131 16.3085V18.722L17.3341 19.801L17.2489 19.6874ZM18.4131 21.0787V19.8293L17.8453 20.3972L18.4131 21.0787ZM18.3279 14.974L18.2428 14.8888L18.3279 14.7752L18.4131 14.6901V15.0876L18.3279 14.974ZM16.7663 20.3688L15.3182 18.6652V21.7885L15.8861 21.2206L16.7663 20.3688ZM19.2081 31.272V23.2082L23.9782 28.745L20.5142 32.7769L19.2081 31.272ZM17.1638 14.8605L16.312 13.8667L15.3182 12.6742V16.7913L16.2836 15.7691L17.1638 14.8605ZM17.2773 20.965L18.4131 22.2996V30.3634L15.3182 26.729V22.8958L16.1416 22.0724L17.2773 20.965ZM14.5232 17.6146V11.7655V10.5446V9.80637L13.1035 9.94834L10.2073 13.8099L7.45312 17.6146L14.5232 25.8204V23.6909V22.5835V17.7566V17.6146ZM19.4352 17.4727L19.5488 17.6147L19.3217 17.8134L19.2081 17.927V17.2171L19.4352 17.4727Z" fill="url(#paint1_linear_12198_257534)" fill-opacity="0.2"/>
<path fill-rule="evenodd" clip-rule="evenodd" d="M20.5142 9.15332L22.4734 9.35208L19.2081 12.7309V9.29529L20.5142 9.15332ZM15.3182 11.4532L16.6527 13.0149L17.7316 14.2642L18.1008 13.8951L18.4131 13.5543V9.38046L15.3182 9.72118V11.4532ZM19.2081 15.9962V13.8667L23.4671 9.46567L27.3571 9.89157L20.1167 17.0468L19.6624 16.5357L19.2081 15.9962ZM19.2081 19.0344L19.5772 18.6936L20.0599 18.2109L26.5621 25.7353L24.4893 28.1487L19.2081 21.9873V19.0344ZM27.0731 25.098L33.5469 17.5736L30.8211 13.7689L28.1237 10.1913L20.6277 17.602L27.0731 25.098ZM17.2489 19.6874L15.5169 17.6998L17.7032 15.4567L18.4131 16.3085V18.722L17.3341 19.801L17.2489 19.6874ZM18.4131 21.0787V19.8293L17.8453 20.3972L18.4131 21.0787ZM18.3279 14.974L18.2428 14.8888L18.3279 14.7752L18.4131 14.6901V15.0876L18.3279 14.974ZM16.7663 20.3688L15.3182 18.6652V21.7885L15.8861 21.2206L16.7663 20.3688ZM19.2081 31.272V23.2082L23.9782 28.745L20.5142 32.7769L19.2081 31.272ZM17.1638 14.8605L16.312 13.8667L15.3182 12.6742V16.7913L16.2836 15.7691L17.1638 14.8605ZM17.2773 20.965L18.4131 22.2996V30.3634L15.3182 26.729V22.8958L16.1416 22.0724L17.2773 20.965ZM14.5232 17.6146V11.7655V10.5446V9.80637L13.1035 9.94834L10.2073 13.8099L7.45312 17.6146L14.5232 25.8204V23.6909V22.5835V17.7566V17.6146ZM19.4352 17.4727L19.5488 17.6147L19.3217 17.8134L19.2081 17.927V17.2171L19.4352 17.4727Z" fill="url(#paint2_linear_12198_257534)" fill-opacity="0.3"/>
</g>
</g>
</g>
<defs>
<filter id="filter0_di_12198_257534" x="-72.5469" y="-30.8467" width="186.094" height="183.624" filterUnits="userSpaceOnUse" color-interpolation-filters="sRGB">
<feFlood flood-opacity="0" result="BackgroundImageFix"/>
<feColorMatrix in="SourceAlpha" type="matrix" values="0 0 0 0 0 0 0 0 0 0 0 0 0 0 0 0 0 0 127 0" result="hardAlpha"/>
<feOffset dy="40"/>
<feGaussianBlur stdDeviation="40"/>
<feComposite in2="hardAlpha" operator="out"/>
<feColorMatrix type="matrix" values="0 0 0 0 0 0 0 0 0 0 0 0 0 0 0 0 0 0 0.2 0"/>
<feBlend mode="normal" in2="BackgroundImageFix" result="effect1_dropShadow_12198_257534"/>
<feBlend mode="normal" in="SourceGraphic" in2="effect1_dropShadow_12198_257534" result="shape"/>
<feColorMatrix in="SourceAlpha" type="matrix" values="0 0 0 0 0 0 0 0 0 0 0 0 0 0 0 0 0 0 127 0" result="hardAlpha"/>
<feOffset/>
<feGaussianBlur stdDeviation="10"/>
<feComposite in2="hardAlpha" operator="arithmetic" k2="-1" k3="1"/>
<feColorMatrix type="matrix" values="0 0 0 0 1 0 0 0 0 1 0 0 0 0 1 0 0 0 0.25 0"/>
<feBlend mode="normal" in2="shape" result="effect2_innerShadow_12198_257534"/>
</filter>
<linearGradient id="paint0_linear_12198_257534" x1="28.5742" y1="1.36719" x2="7.79297" y2="40" gradientUnits="userSpaceOnUse">
<stop stop-color="#0D347D"/>
<stop offset="0.515625" stop-color="#001F58"/>
<stop offset="0.979167" stop-color="#011538"/>
</linearGradient>
<linearGradient id="paint1_linear_12198_257534" x1="25.7483" y1="9.15332" x2="20.5072" y2="26.8445" gradientUnits="userSpaceOnUse">
<stop stop-color="#F5BC21"/>
<stop offset="1" stop-color="#F78700"/>
</linearGradient>
<linearGradient id="paint2_linear_12198_257534" x1="28.3789" y1="9.15332" x2="24.2145" y2="18.4461" gradientUnits="userSpaceOnUse">
<stop stop-color="white"/>
<stop offset="1" stop-color="white" stop-opacity="0.2"/>
</linearGradient>
<clipPath id="clip0_12198_257534">
<path d="M0.5 8C0.5 3.58172 4.08172 0 8.5 0H32.5C36.9183 0 40.5 3.58172 40.5 8V32C40.5 36.4183 36.9183 40 32.5 40H8.5C4.08172 40 0.5 36.4183 0.5 32V8Z" fill="white"/>
</clipPath>
<clipPath id="clip1_12198_257534">
<rect width="40" height="40" fill="white" transform="translate(0.5)"/>
</clipPath>
</defs>
</svg>
