<svg width="125" height="125" viewBox="0 0 125 125" fill="none" xmlns="http://www.w3.org/2000/svg">
  <circle cx="62.5" cy="62.5" r="56" fill="#F3F5FA"/>
  <path fill-rule="evenodd" clip-rule="evenodd" d="M65.9544 19C65.9544 18.1716 65.2829 17.5 64.4544 17.5C63.626 17.5 62.9544 18.1716 62.9544 19V32.5455C62.9544 33.3739 63.626 34.0455 64.4544 34.0455C65.2829 34.0455 65.9544 33.3739 65.9544 32.5455V19ZM41.3182 27.0757C40.7324 26.4899 39.7827 26.4899 39.1969 27.0757C38.6111 27.6615 38.6111 28.6112 39.1969 29.197L48.775 38.7751C49.3608 39.3609 50.3105 39.3609 50.8963 38.7751C51.4821 38.1893 51.4821 37.2396 50.8963 36.6538L41.3182 27.0757ZM88.9567 27.0757C88.3709 26.4899 87.4212 26.4899 86.8354 27.0757L77.2573 36.6538C76.6715 37.2396 76.6715 38.1893 77.2573 38.7751C77.8431 39.3609 78.7928 39.3609 79.3786 38.7751L88.9567 29.197C89.5425 28.6112 89.5425 27.6615 88.9567 27.0757ZM50.409 48.2314C50.6923 47.5531 50.945 47.0024 51.158 46.5811C51.3134 46.7928 51.4901 47.0571 51.6841 47.3774C52.5735 48.8455 53.487 50.9044 54.0565 52.3688C54.2807 52.9454 54.8359 53.3252 55.4545 53.3252H61.9545C62.1299 53.3252 62.2981 53.2951 62.4545 53.2398C62.6109 53.2951 62.7792 53.3252 62.9545 53.3252H69.4545C70.0732 53.3252 70.6283 52.9454 70.8525 52.3688C71.4221 50.9044 72.3356 48.8455 73.225 47.3774C73.419 47.0571 73.5956 46.7928 73.7511 46.5811C73.964 47.0024 74.2168 47.5531 74.5001 48.2314C75.0363 49.5152 75.6322 51.1331 76.2166 52.9171C77.389 56.4961 78.4865 60.6553 78.9696 64.0373C79.0868 64.8574 79.8466 65.4272 80.6667 65.3101C81.4868 65.1929 82.0566 64.4331 81.9395 63.613C81.7085 61.9964 81.3507 60.2356 80.9182 58.4546H85.5925L94.8239 67.3901H78.3182C76.6613 67.3901 75.3182 68.7333 75.3182 70.3901V73.7729C75.3182 76.5343 73.0796 78.7729 70.3182 78.7729H55.5909C52.8295 78.7729 50.5909 76.5343 50.5909 73.7729V70.3901C50.5909 68.7333 49.2477 67.3901 47.5909 67.3901H31.0851L40.3166 58.4546H43.9909C43.5584 60.2356 43.2006 61.9964 42.9696 63.613C42.8525 64.4331 43.4223 65.1929 44.2424 65.3101C45.0625 65.4272 45.8223 64.8574 45.9395 64.0373C46.4226 60.6553 47.5201 56.4961 48.6925 52.9171C49.2769 51.1331 49.8728 49.5152 50.409 48.2314ZM79.0675 51.9832C79.4307 53.092 79.7894 54.2619 80.1274 55.4546H86.1996C86.5889 55.4546 86.9631 55.606 87.2428 55.8768L99.2655 67.5142C100.505 67.8827 101.409 69.0309 101.409 70.3901V88.5145C101.409 94.5897 96.4842 99.5145 90.4091 99.5145H35.5C29.4249 99.5145 24.5 94.5897 24.5 88.5145V70.3901C24.5 69.0309 25.404 67.8827 26.6436 67.5142L38.6663 55.8768C38.946 55.606 39.3201 55.4546 39.7095 55.4546H44.7817C45.1197 54.2619 45.4783 53.092 45.8416 51.9832C46.4447 50.1422 47.0675 48.4477 47.6407 47.0752C48.1937 45.7511 48.7549 44.5914 49.2545 43.9252C49.6316 43.4224 50.2345 43.0201 51.0125 43.0442C51.6742 43.0647 52.1917 43.3922 52.5147 43.6505C53.1691 44.1737 53.7606 45.0152 54.25 45.8229C55.0727 47.181 55.8743 48.9037 56.4669 50.3252H61.9545C62.1299 50.3252 62.2981 50.3552 62.4545 50.4105C62.6109 50.3552 62.7792 50.3252 62.9545 50.3252H68.4422C69.0347 48.9037 69.8363 47.181 70.6591 45.8229C71.1485 45.0152 71.7399 44.1737 72.3944 43.6505C72.7174 43.3922 73.2349 43.0647 73.8966 43.0442C74.6746 43.0201 75.2775 43.4224 75.6545 43.9252C76.1542 44.5914 76.7154 45.7511 77.2684 47.0752C77.8416 48.4477 78.4644 50.1422 79.0675 51.9832ZM50.5981 45.9627C50.598 45.9624 50.6024 45.9648 50.6114 45.971C50.6026 45.9662 50.5981 45.9631 50.5981 45.9627ZM74.311 45.9627C74.3111 45.9624 74.3067 45.9648 74.2977 45.971C74.3028 45.9682 74.3065 45.966 74.3086 45.9645C74.3102 45.9635 74.311 45.9629 74.311 45.9627ZM57.9545 63.5432C57.9545 64.6478 57.0591 65.5432 55.9545 65.5432C54.85 65.5432 53.9545 64.6478 53.9545 63.5432C53.9545 62.4387 54.85 61.5432 55.9545 61.5432C57.0591 61.5432 57.9545 62.4387 57.9545 63.5432ZM69.9545 65.5432C71.0591 65.5432 71.9545 64.6478 71.9545 63.5432C71.9545 62.4387 71.0591 61.5432 69.9545 61.5432C68.85 61.5432 67.9545 62.4387 67.9545 63.5432C67.9545 64.6478 68.85 65.5432 69.9545 65.5432ZM58.9545 68.0432C58.9545 67.2148 59.6261 66.5432 60.4545 66.5432H65.4545C66.283 66.5432 66.9545 67.2148 66.9545 68.0432C66.9545 68.8717 66.283 69.5432 65.4545 69.5432H63.291C63.512 69.6105 63.7061 69.7533 63.8362 69.9515C64.6997 71.268 65.8056 71.5966 66.7828 71.4775C67.8408 71.3484 68.7536 70.6953 69.1225 70.0204C69.3874 69.5357 69.995 69.3576 70.4796 69.6225C70.9643 69.8874 71.1424 70.495 70.8775 70.9796C70.1695 72.2748 68.6592 73.2634 67.0249 73.4628C65.6527 73.6301 64.1906 73.2434 63 72.0748C61.8094 73.2434 60.3473 73.6301 58.9751 73.4628C57.3408 73.2634 55.8305 72.2748 55.1225 70.9796C54.8576 70.495 55.0357 69.8874 55.5204 69.6225C56.005 69.3576 56.6126 69.5357 56.8775 70.0204C57.2464 70.6953 58.1592 71.3484 59.2172 71.4775C60.1944 71.5966 61.3003 71.268 62.1638 69.9515C62.2939 69.7533 62.488 69.6105 62.709 69.5432H60.4545C59.6261 69.5432 58.9545 68.8717 58.9545 68.0432ZM30.5 70.3901H44.5909H47.5909V73.3901V73.7729C47.5909 78.1912 51.1726 81.7729 55.5909 81.7729H70.3182C74.7364 81.7729 78.3182 78.1912 78.3182 73.7729V73.3901V70.3901H81.3182H95.4091H98.4091V73.3901V88.5145C98.4091 92.9328 94.8274 96.5145 90.4091 96.5145H35.5C31.0817 96.5145 27.5 92.9328 27.5 88.5145V73.3901V70.3901H30.5Z" fill="#BFC7DB"/>
  </svg>
  